<?xml version="1.0" encoding="UTF-8" standalone="no"?>
<!-- Created with Inkscape (http://www.inkscape.org/) -->

<svg
   xmlns:dc="http://purl.org/dc/elements/1.1/"
   xmlns:cc="http://creativecommons.org/ns#"
   xmlns:rdf="http://www.w3.org/1999/02/22-rdf-syntax-ns#"
   xmlns:svg="http://www.w3.org/2000/svg"
   xmlns="http://www.w3.org/2000/svg"
   xmlns:sodipodi="http://sodipodi.sourceforge.net/DTD/sodipodi-0.dtd"
   xmlns:inkscape="http://www.inkscape.org/namespaces/inkscape"
   width="24.789873mm"
   height="41.218483mm"
   viewBox="0 0 87.838133 146.04974"
   id="svg12111"
   version="1.1"
   inkscape:version="0.91 r13725"
   sodipodi:docname="carrot.svg">
  <defs
     id="defs12113" />
  <sodipodi:namedview
     id="base"
     pagecolor="#ffffff"
     bordercolor="#666666"
     borderopacity="1.0"
     inkscape:pageopacity="0.0"
     inkscape:pageshadow="2"
     inkscape:zoom="0.35"
     inkscape:cx="-563.93808"
     inkscape:cy="47.310584"
     inkscape:document-units="px"
     inkscape:current-layer="layer1"
     showgrid="false"
     fit-margin-top="0"
     fit-margin-left="0"
     fit-margin-right="0"
     fit-margin-bottom="0"
     inkscape:window-width="1366"
     inkscape:window-height="715"
     inkscape:window-x="0"
     inkscape:window-y="0"
     inkscape:window-maximized="1" />
  <metadata
     id="metadata12116">
    <rdf:RDF>
      <cc:Work
         rdf:about="">
        <dc:format>image/svg+xml</dc:format>
        <dc:type
           rdf:resource="http://purl.org/dc/dcmitype/StillImage" />
        <dc:title></dc:title>
      </cc:Work>
    </rdf:RDF>
  </metadata>
  <g
     inkscape:label="Calque 1"
     inkscape:groupmode="layer"
     id="layer1"
     transform="translate(-353.22379,-433.62305)">
    <g
       transform="matrix(0.11262813,0,0,0.11262813,964.56752,294.85705)"
       style="display:inline;opacity:0.95;filter:url(#filter4218)"
       id="g9180"
       inkscape:export-xdpi="100"
       inkscape:export-ydpi="100">
      <g
         transform="matrix(0.95834721,0.28560572,-0.28560572,0.95834721,339.87719,1518.0165)"
         id="g9169">
        <path
           sodipodi:nodetypes="sccs"
           inkscape:connector-curvature="0"
           id="path9139"
           d="m -5136.0098,1742.218 c -43.6355,67.444 -97.9494,302.7137 -121.5067,576.8314 -46.7642,788.8682 520.3406,-413.2882 320.6273,-612.9021 -82.9997,-73.2318 -154.8516,-32.3525 -199.1206,36.0707 z"
           style="fill:#ff6600;fill-rule:evenodd;stroke:none;stroke-width:25;stroke-linecap:butt;stroke-linejoin:miter;stroke-miterlimit:4;stroke-dasharray:none;stroke-opacity:1"
           inkscape:transform-center-x="-175.82011"
           inkscape:transform-center-y="-422.12959" />
        <path
           inkscape:transform-center-y="-422.12959"
           inkscape:transform-center-x="-175.82011"
           style="fill:#ffcc00;fill-rule:evenodd;stroke:none;stroke-width:25;stroke-linecap:butt;stroke-linejoin:miter;stroke-miterlimit:4;stroke-dasharray:none;stroke-opacity:1"
           d="m -5136.0098,1742.218 c -43.6355,67.444 -97.9494,302.7137 -121.5067,576.8314 -56.7399,789.8177 402.0763,-421.7799 318.9246,-582.2529 -50.9243,-98.278 -153.1489,-63.0017 -197.4179,5.4215 z"
           id="path9149"
           inkscape:connector-curvature="0"
           sodipodi:nodetypes="scss" />
        <path
           style="fill:none;fill-rule:evenodd;stroke:#4d4d4d;stroke-width:25;stroke-linecap:butt;stroke-linejoin:miter;stroke-miterlimit:4;stroke-dasharray:none;stroke-opacity:1"
           d="m -5136.488,1741.4402 c -49.183,68.9914 -107.9067,305.3598 -124.09,580.1546 -27.2469,462.6563 158.7923,222.7168 279.4584,41.5827 203.8424,-305.9915 219.065,-565.4089 97.3666,-648.8315 -102.3422,-70.1542 -202.8378,-42.8989 -252.735,27.0942 z"
           id="path9137"
           inkscape:connector-curvature="0"
           sodipodi:nodetypes="sssss" />
        <path
           style="fill:none;fill-rule:evenodd;stroke:#4d4d4d;stroke-width:25;stroke-linecap:butt;stroke-linejoin:miter;stroke-miterlimit:4;stroke-dasharray:none;stroke-opacity:1"
           d="m -5194.3126,1893.2309 c 22.4441,31.0729 84.8081,50.3826 160.0569,57.893"
           id="path9141"
           inkscape:connector-curvature="0"
           sodipodi:nodetypes="cc" />
        <path
           sodipodi:nodetypes="cc"
           inkscape:connector-curvature="0"
           id="path9143"
           d="m -5256.1952,2258.5925 c 22.4441,31.0729 93.6066,44.3198 148.1378,47.6766"
           style="fill:none;fill-rule:evenodd;stroke:#4d4d4d;stroke-width:25;stroke-linecap:butt;stroke-linejoin:miter;stroke-miterlimit:4;stroke-dasharray:none;stroke-opacity:1" />
        <path
           style="fill:none;fill-rule:evenodd;stroke:#4d4d4d;stroke-width:25;stroke-linecap:butt;stroke-linejoin:miter;stroke-miterlimit:4;stroke-dasharray:none;stroke-opacity:1"
           d="m -5196.0153,2461.9439 c 33.2802,24.4508 73.879,28.8063 126.0022,25.541"
           id="path9145"
           inkscape:connector-curvature="0"
           sodipodi:nodetypes="cc" />
        <path
           sodipodi:nodetypes="cc"
           inkscape:connector-curvature="0"
           id="path9147"
           d="m -5065.3516,2166.4366 c 33.2802,24.4508 119.0014,44.9823 171.1246,41.717"
           style="fill:none;fill-rule:evenodd;stroke:#4d4d4d;stroke-width:25;stroke-linecap:butt;stroke-linejoin:miter;stroke-miterlimit:4;stroke-dasharray:none;stroke-opacity:1" />
        <path
           style="fill:#00ff66;fill-rule:evenodd;stroke:#4d4d4d;stroke-width:25;stroke-linecap:butt;stroke-linejoin:miter;stroke-miterlimit:4;stroke-dasharray:none;stroke-opacity:1"
           d="m -5025.8031,1662.8584 c 0,0 -103.5452,-66.2851 -110.7693,-127.0465 -7.2241,-60.7614 54.1806,-88.3802 46.9566,-157.4271 -7.2241,-69.047 -57.7927,-114.6181 -57.7927,-114.6181 0,0 83.077,9.6666 109.5653,88.3802 26.4883,78.7135 -38.9771,140.0248 -12.4888,178.6911 26.4883,38.6663 28.141,69.8781 30.549,83.6875 2.408,13.8094 -6.0201,48.3329 -6.0201,48.3329 z"
           id="path9151"
           inkscape:connector-curvature="0"
           sodipodi:nodetypes="csscsssc" />
        <path
           style="color:#000000;clip-rule:nonzero;display:inline;overflow:visible;visibility:visible;opacity:1;isolation:auto;mix-blend-mode:normal;color-interpolation:sRGB;color-interpolation-filters:linearRGB;solid-color:#000000;solid-opacity:1;fill:#00ff66;fill-opacity:1;fill-rule:evenodd;stroke:#4d4d4d;stroke-width:25;stroke-linecap:butt;stroke-linejoin:miter;stroke-miterlimit:4;stroke-dasharray:none;stroke-dashoffset:0;stroke-opacity:1;color-rendering:auto;image-rendering:auto;shape-rendering:auto;text-rendering:auto;enable-background:accumulate"
           d="m -5001.9037,1666.7674 c 0,0 -23.8383,-122.5968 17.0273,-170.2734 40.8656,-47.6765 178.787,-97.0558 178.787,-97.0558 0,0 -3.4054,114.0832 -45.9738,156.6515 -42.5683,42.5683 -149.8405,110.6777 -149.8405,110.6777 z"
           id="path9153"
           inkscape:connector-curvature="0" />
      </g>
    </g>
  </g>
</svg>
