<?xml version="1.0" encoding="UTF-8" standalone="no"?>
<!-- Created with Inkscape (http://www.inkscape.org/) -->

<svg
   xmlns:dc="http://purl.org/dc/elements/1.1/"
   xmlns:cc="http://creativecommons.org/ns#"
   xmlns:rdf="http://www.w3.org/1999/02/22-rdf-syntax-ns#"
   xmlns:svg="http://www.w3.org/2000/svg"
   xmlns="http://www.w3.org/2000/svg"
   xmlns:sodipodi="http://sodipodi.sourceforge.net/DTD/sodipodi-0.dtd"
   xmlns:inkscape="http://www.inkscape.org/namespaces/inkscape"
   id="svg6726"
   version="1.1"
   inkscape:version="0.91 r13725"
   width="325"
   height="325"
   viewBox="0 0 325 325"
   sodipodi:docname="la carotte dans les expressions francaises.svg">
  <metadata
     id="metadata6732">
    <rdf:RDF>
      <cc:Work
         rdf:about="">
        <dc:format>image/svg+xml</dc:format>
        <dc:type
           rdf:resource="http://purl.org/dc/dcmitype/StillImage" />
        <dc:title></dc:title>
      </cc:Work>
    </rdf:RDF>
  </metadata>
  <defs
     id="defs6730" />
  <sodipodi:namedview
     pagecolor="#ffffff"
     bordercolor="#666666"
     borderopacity="1"
     objecttolerance="10"
     gridtolerance="10"
     guidetolerance="10"
     inkscape:pageopacity="0"
     inkscape:pageshadow="2"
     inkscape:window-width="1920"
     inkscape:window-height="1017"
     id="namedview6728"
     showgrid="false"
     fit-margin-top="0"
     fit-margin-left="0"
     fit-margin-right="0"
     fit-margin-bottom="0"
     inkscape:zoom="2.5907692"
     inkscape:cx="249.73278"
     inkscape:cy="162.5"
     inkscape:window-x="-8"
     inkscape:window-y="-8"
     inkscape:window-maximized="1"
     inkscape:current-layer="svg6726" />
  <g
     id="g6736">
    <path
       style="fill:#fcfcfb"
       d="M 0,162.5 0,0 162.5,0 325,0 325,162.5 325,325 162.5,325 0,325 0,162.5 Z"
       id="path6746"
       inkscape:connector-curvature="0" />
    <path
       style="fill:#e5b020"
       d="m 0,320.5 0,-4.5 62.520324,0 62.520326,0 -2.1707,-4.25 c -2.8777,-5.63422 -3.13717,-16.62911 -0.5178,-21.94144 2.57591,-5.22418 5.78936,-7.00856 12.62157,-7.00856 7.00085,0 11.12029,1.97283 14.4976,6.94298 1.39077,2.04671 2.53527,3.05433 2.54333,2.23915 0.0287,-2.90593 9.17104,-19.58652 14.66953,-26.76529 3.07588,-4.01584 8.23026,-9.37385 11.45417,-11.9067 3.22391,-2.53284 5.86165,-4.73473 5.86165,-4.89308 0,-0.15835 -3.32443,-7.85447 -7.38762,-17.10249 -4.06318,-9.24801 -7.96574,-18.7482 -8.67235,-21.11153 -1.51582,-5.0698 -4.06851,-5.40483 -6.76152,-0.88742 -1.64128,2.75317 -1.61909,2.85923 1.00013,4.78142 1.47325,1.08119 4.88911,4.98916 7.5908,8.68438 4.10231,5.61091 5.11443,7.89247 6.13899,13.83884 1.02697,5.96028 0.99244,7.67085 -0.21192,10.5 -3.55981,8.36226 -11.93936,11.68491 -21.92426,8.69336 -9.44303,-2.8292 -12.60152,-10.36827 -6.66649,-15.91241 1.70816,-1.59567 3.50816,-2.90121 4,-2.90121 0.49183,0 0.89424,-1.28931 0.89424,-2.86514 0,-1.57583 0.87856,-3.98205 1.95236,-5.34717 l 1.95236,-2.48202 -3.0443,-2.25074 c -4.12701,-3.05124 -6.1719,-8.21247 -5.32173,-13.43186 0.91965,-5.64589 5.18551,-13.25013 9.36642,-16.69638 l 3.47235,-2.86221 -5.22102,-16.28224 c -11.0484,-34.45544 -12.05473,-52.66351 -3.58601,-64.88387 1.48919,-2.1489 4.33256,-4.88328 6.31859,-6.07639 1.98604,-1.19311 3.74773,-2.2654 3.91487,-2.38286 0.16713,-0.11746 -0.61868,-1.726811 -1.74626,-3.57634 -2.95027,-4.839204 -2.63715,-11.344267 1.0687,-22.202533 2.52644,-7.40255 3.87967,-9.831838 7.0524,-12.660247 2.24477,-2.00116 4.48416,-5.21296 5.2293,-7.5 1.01247,-3.107601 2.20748,-4.4462 5.35638,-6 3.11369,-1.536427 4.19737,-2.7356 4.67535,-5.173611 0.63196,-3.223355 5.84943,-8.687468 9.24453,-9.681533 0.99864,-0.292394 4.51571,-1.278327 7.81571,-2.190962 3.3,-0.912634 7.06307,-2.331621 8.36239,-3.153305 3.05704,-1.933269 10.52116,-0.917035 13.24094,1.802743 1.07754,1.077543 2.22636,3.295105 2.55292,4.927918 C 225.07123,38.106168 225.83769,39 227.20192,39 230.26955,39 235,44.363279 235,47.841289 c 0,4.687001 -0.96806,6.162124 -5.13918,7.831077 -3.95522,1.582566 -4.95369,3.398734 -4.55943,8.293435 0.26569,3.298565 -2.69515,4.645058 -13.07651,5.94677 -9.60602,1.204493 -11.1105,1.871386 -17.43204,7.72712 -4.90297,4.541689 -6.77346,5.078576 -11.47108,3.292544 -2.48376,-0.944325 -3.07491,-0.757966 -5.11347,1.612003 -1.87926,2.184774 -2.24993,3.628836 -2.00667,7.817765 L 176.5,95.5 l 5.73591,0.712278 c 23.68577,2.941267 34.83473,23.847732 37.36059,70.058372 0.79775,14.59472 -0.006,13.93055 10.49014,8.667 9.24702,-4.63708 14.93273,-13.09082 13.52807,-20.11411 -0.32972,-1.64858 -2.15473,-5.5458 -4.05558,-8.66048 -1.90086,-3.11468 -3.75307,-6.90056 -4.11602,-8.41306 -0.36296,-1.5125 -1.22546,-2.75 -1.91666,-2.75 -2.1305,0 -6.52645,-4.04135 -6.52645,-6 0,-1.02016 1.2375,-2.83139 2.75,-4.02494 3.78631,-2.98789 9.53297,-2.25249 15.73316,2.01335 5.46833,3.76231 5.77895,3.56535 7.68083,-4.87054 2.34951,-10.42134 7.88525,-15.02475 11.47658,-9.54368 1.70345,2.5998 1.69021,2.90747 -0.3684,8.55985 -1.87504,5.14834 -1.93036,5.75248 -0.45376,4.95569 0.92487,-0.49908 3.00551,-3.18455 4.62363,-5.9677 1.95165,-3.3568 3.93755,-5.40731 5.89923,-6.09115 3.66225,-1.27667 3.22346,-1.3233 5.0873,0.54055 2.4768,2.4768 1.85853,5.73316 -1.92857,10.15754 -1.925,2.24893 -3.5,4.57992 -3.5,5.17999 0,0.60047 1.74349,1.09104 3.87756,1.09104 5.41438,0 7.10263,2.20187 4.44412,5.79618 -1.85076,2.50223 -5.3569,4.06565 -12.76805,5.69338 -4.85206,1.06567 -8.74263,6.27548 -12.38391,16.58315 -3.70636,10.49187 -8.61547,18.50443 -13.72498,22.40164 -4.17503,3.18445 -14.90021,8.32979 -18.94474,9.08862 l -3,0.56286 0.29509,14.18708 c 0.1623,7.8029 -0.12642,18.46209 -0.64161,23.68709 l -0.93671,9.5 8.38698,17 c 4.61284,9.35 9.23254,18.08414 10.266,19.4092 l 1.87902,2.40919 3.54085,-2.18837 c 1.94746,-1.2036 6.99708,-6.69736 11.22137,-12.20837 8.74245,-11.40541 13.41441,-15.01807 20.26359,-15.66916 8.71217,-0.82818 13.52529,5.63905 13.13574,17.65006 -0.15552,4.79493 0.38772,8.27809 1.93677,12.4183 1.20464,3.2197 2.15291,8.07777 2.15291,11.02957 0,4.45232 -0.42906,5.68472 -2.75,7.89887 -7.63467,7.2834 -20.83533,6.07861 -25.49158,-2.32656 -1.49551,-2.69959 -1.77774,-4.65123 -1.33584,-9.2374 0.54605,-5.66704 0.50337,-5.79711 -1.68115,-5.12331 -3.87271,1.19451 -7.17461,3.15269 -9.24379,5.482 -4.16345,4.68686 -9.71587,7.95598 -13.51282,7.95598 -5.42062,0 -8.68534,-3.14956 -13.00696,-12.54815 -2.07577,-4.51434 -4.21283,-8.47903 -4.74903,-8.81042 -0.56838,-0.35128 -1.26377,1.95078 -1.66767,5.52075 -0.55348,4.89214 -1.27518,6.70568 -3.58949,9.01999 l -2.89671,2.89672 -3.94075,-2.01042 c -4.97042,-2.53572 -8.82176,-7.19818 -14.19988,-17.19048 C 192.60225,265.54509 190.23156,262 189.66611,262 c -1.70289,0 -15.30501,10.83736 -17.93067,14.2861 -5.19581,6.82456 -6.95564,11.60424 -6.29451,17.09581 0.33889,2.81495 0.80674,7.36809 1.03967,10.11809 0.23292,2.75 0.71931,6.6875 1.08085,8.75 l 0.65736,3.75 78.3906,0 78.39059,0 0,4.5 0,4.5 -162.5,0 -162.5,0 0,-4.5 z m 252,-40 c 0.68469,-0.825 1.01989,-1.5 0.74489,-1.5 -0.275,0 -1.0602,0.675 -1.74489,1.5 -0.68469,0.825 -1.01989,1.5 -0.74489,1.5 0.275,0 1.0602,-0.675 1.74489,-1.5 z m 3,-8.37418 c 0,-0.275 -1.35,0.79338 -3,2.37418 -1.65,1.5808 -3,3.09918 -3,3.37418 0,0.275 1.35,-0.79338 3,-2.37418 1.65,-1.5808 3,-3.09918 3,-3.37418 z M 258,272 c 0,-0.55 -0.47656,-1 -1.05902,-1 -0.58246,0 -0.7809,0.45 -0.44098,1 0.33992,0.55 0.81648,1 1.05902,1 0.24254,0 0.44098,-0.45 0.44098,-1 z m -86.5,-2 c 0.99549,-1.1 1.58498,-2 1.30998,-2 -0.275,0 -1.31449,0.9 -2.30998,2 -0.99549,1.1 -1.58498,2 -1.30998,2 0.275,0 1.31449,-0.9 2.30998,-2 z m -2,-1 c 0.99549,-1.1 1.58498,-2 1.30998,-2 -0.275,0 -1.31449,0.9 -2.30998,2 -0.99549,1.1 -1.58498,2 -1.30998,2 0.275,0 1.31449,-0.9 2.30998,-2 z m 9,-6 c 0.99549,-1.1 1.58498,-2 1.30998,-2 -0.275,0 -1.31449,0.9 -2.30998,2 -0.99549,1.1 -1.58498,2 -1.30998,2 0.275,0 1.31449,-0.9 2.30998,-2 z m 2.5,-5.5 c 1.29175,-1.375 2.12363,-2.5 1.84863,-2.5 -0.275,0 -1.55688,1.125 -2.84863,2.5 -1.29175,1.375 -2.12363,2.5 -1.84863,2.5 0.275,0 1.55688,-1.125 2.84863,-2.5 z m 5.12409,-3.76667 c -0.98762,-0.98026 -1.10248,-0.8654 -0.5598,0.5598 0.37553,0.98622 0.93469,1.54122 1.24258,1.23333 0.30789,-0.30789 6.4e-4,-1.11479 -0.68278,-1.79313 z m 35.15529,-1.77299 c -0.29336,-1.12182 -0.75683,-1.81623 -1.02992,-1.54313 -0.541,0.54099 0.41459,3.58279 1.12554,3.58279 0.24077,0 0.19774,-0.91785 -0.0956,-2.03966 z M 164,250.46137 c 4.13055,-2.10053 7.29328,-6.14687 7.17279,-9.17672 -0.26826,-6.74572 -0.78652,-10.87443 -1.51066,-12.03465 -0.94366,-1.51196 -8.03867,-1.65403 -10.72787,-0.21482 C 157.814,229.63473 157,231.12214 157,232.56963 c 0,2.43187 0.14154,2.48151 5.25,1.84118 l 5.25,-0.65808 -3.5,2.38137 c -2.00459,1.36389 -4.48885,4.44887 -5.81439,7.22034 -2.09381,4.37778 -2.47505,4.70129 -4,3.39427 C 150.75254,243.80627 146,243.62278 146,246.43267 c 0,1.63758 4.01618,5.25131 6.5,5.84866 2.69344,0.64776 8.4338,-0.2607 11.5,-1.81996 z m -9.48617,-12.28087 c -0.84812,-0.84812 -3.50417,2.02611 -2.85018,3.0843 0.39308,0.636 1.15958,0.32985 1.97866,-0.79031 0.73536,-1.00567 1.12755,-2.03796 0.87152,-2.29399 z m 9.97609,-14.19681 c -0.34546,-0.55897 -1.04702,-0.75742 -1.55902,-0.44098 -1.38704,0.85723 -1.12841,1.45729 0.62812,1.45729 0.85746,0 1.27636,-0.45734 0.9309,-1.01631 z m -7.88575,-15.71286 c -0.3323,-0.33229 -0.56864,0.25834 -0.52522,1.3125 0.048,1.16495 0.28494,1.4019 0.60416,0.60417 0.28887,-0.72188 0.25335,-1.58438 -0.0789,-1.91667 z M 157.5,199 c 0.99549,-1.1 1.58498,-2 1.30998,-2 -0.275,0 -1.31449,0.9 -2.30998,2 -0.99549,1.1 -1.58498,2 -1.30998,2 0.275,0 1.31449,-0.9 2.30998,-2 z m 4.56044,-3.24286 c -1.09025,-1.01237 -1.21117,-1.00523 -0.62105,0.0367 0.40303,0.7116 0.1562,2.0616 -0.54853,3 -1.15363,1.53616 -1.09173,1.53251 0.62105,-0.0367 1.58927,-1.456 1.67955,-1.94977 0.54853,-3 z M 240,173.5 c 0.68469,-0.825 1.01989,-1.5 0.74489,-1.5 -0.275,0 -1.0602,0.675 -1.74489,1.5 -0.68469,0.825 -1.01989,1.5 -0.74489,1.5 0.275,0 1.0602,-0.675 1.74489,-1.5 z m -70.27285,-17.14637 c 2.30798,-0.57926 2.40883,-0.78103 0.93067,-1.86189 C 169.72346,153.80852 169,151.90935 169,150.13976 169,147.73492 168.56052,147 167.12244,147 c -2.47427,0 -3.71728,1.69811 -4.5244,6.18091 -0.54891,3.04868 -0.27073,4.04812 1.61961,5.81889 l 2.28235,2.13799 0.31933,-2.06725 c 0.19298,-1.24924 1.3436,-2.32431 2.90782,-2.71691 z m 80.87702,1.9172 c -0.3323,-0.33229 -0.56864,0.25834 -0.52522,1.3125 0.048,1.16495 0.28494,1.4019 0.60416,0.60417 0.28887,-0.72188 0.25335,-1.58438 -0.0789,-1.91667 z m 3.14583,-3.90112 c 2.86274,-0.76718 2.88212,-1.97115 0.0437,-2.71342 -2.6851,-0.70217 -3.12145,-0.27093 7.14094,-7.05727 4.63903,-3.06771 10.03903,-5.86614 12,-6.21873 4.10008,-0.73721 6.06539,-2.03418 6.06539,-4.00273 0,-1.82112 -3.84332,-1.7588 -8.37788,0.13586 C 267.23288,135.92954 267,135.91 267,134.20959 c 0,-0.99949 1.55762,-3.32696 3.46139,-5.17216 3.35145,-3.24836 6.53861,-8.61411 6.53861,-11.00811 0,-2.42376 -4.53142,-0.42349 -6.48426,2.86231 -2.55645,4.30141 -7.02661,9.10837 -8.4702,9.10837 -2.08003,0 -2.36512,-3.26619 -0.84107,-9.63587 1.1489,-4.80179 1.22601,-6.36413 0.31411,-6.36413 -2.11117,0 -4.66772,3.71202 -5.63267,8.17843 -2.53574,11.73704 -5.243,13.46487 -12.96031,8.2715 -6.71564,-4.51929 -9.46068,-5.18065 -11.99255,-2.88934 -1.96762,1.78067 -1.95969,1.80885 0.83987,2.98598 4.28552,1.80192 7.801,6.65311 10.26854,14.17007 1.2247,3.73085 2.63221,7.57086 3.12782,8.53336 0.92046,1.78763 4.39605,2.24116 8.58072,1.11971 z m -3.72339,-11.19663 c -0.0354,-3.0974 5.14234,-8.17308 8.33745,-8.17308 3.08892,0 4.43541,1.79649 1.94932,2.6008 -5.48445,1.77435 -7.04765,2.71913 -8.57572,5.1831 -1.6551,2.66879 -1.6849,2.67556 -1.71105,0.38918 z m -59.49729,7.73454 c 0.333,-1.04919 1.2605,-1.90762 2.06112,-1.90762 1.22678,0 1.1989,-0.39187 -0.17734,-2.49228 -0.89815,-1.37075 -1.38966,-3.12641 -1.09225,-3.90146 0.58601,-1.52712 -2.95709,-3.00385 -3.82762,-1.59531 -0.91505,1.48058 -1.76406,9.84089 -1.15939,11.41663 0.75121,1.95764 3.39582,0.99954 4.19548,-1.51996 z M 91,126.95929 75.5,116.10566 57.413518,116.701 39.327036,117.29634 33.413518,114.59403 C 27.167852,111.73994 21.709653,107.17884 19.502441,102.96937 18.772635,101.57752 15.800638,84.653532 12.898003,65.360502 7.6709458,30.617654 7.6368837,30.239329 9.3354597,25.791671 11.667381,19.685622 17.071123,13.628074 22.55391,10.973903 27.355045,8.6497129 26.746447,8.6588984 50.5,10.552119 c 8.048879,0.641517 59.58979,4.247385 71.5,5.002231 14.66709,0.929573 21.51897,4.941497 25.03175,14.656635 1.17706,3.255337 0.9351,7.798332 -1.97063,37 -3.64069,36.587725 -4.36306,39.629315 -10.52872,44.332095 -3.4364,2.62108 -4.66046,2.89201 -16.86883,3.73383 -7.23997,0.49923 -13.25268,0.99276 -13.36158,1.09673 -0.10891,0.10398 0.84218,4.67494 2.11352,10.15771 2.19969,9.48633 2.34292,11.5873 0.77547,11.37511 C 106.81094,137.85501 99.525,132.92878 91,126.95929 Z m 11.96152,-2.46999 c -2.89191,-12.20378 -3.284724,-11.48405 6.28848,-11.52202 14.16529,-0.0562 21.55935,-1.41045 24.83497,-4.54868 1.57784,-1.51167 3.30433,-4.13677 3.83665,-5.83355 1.46404,-4.666696 7.34934,-64.481616 6.81301,-69.243712 -0.2576,-2.287265 -1.46617,-5.559952 -2.68571,-7.27264 -4.6371,-6.512197 -4.88726,-6.555585 -60.954267,-10.57166 C 52.865902,13.475015 28.219631,12.111417 26.325161,12.466822 19.422077,13.761848 11.074328,24.144956 11.02298,31.5 c -0.01152,1.65 2.214241,17.806167 4.946133,35.902594 5.798507,38.410096 5.788462,38.383546 16.522126,43.667706 l 6.572161,3.23547 18.373014,-0.57895 18.373013,-0.57895 14.345286,9.82993 c 7.889908,5.40646 14.425097,9.75587 14.522647,9.66537 0.0976,-0.0905 -0.67458,-3.75975 -1.71584,-8.15387 z M 37.055231,108 C 37.037273,104.02948 40.488805,97.500191 43.883472,95.082975 45.597563,93.862435 47,92.412687 47,91.861312 c 0,-0.551375 1.739737,-3.108232 3.866081,-5.681906 2.126345,-2.573673 5.05222,-7.240889 6.501945,-10.371591 1.449724,-3.130701 3.103946,-5.981476 3.676047,-6.335054 0.572102,-0.353578 1.750341,-2.417723 2.618309,-4.586989 0.867968,-2.169265 2.42401,-4.396824 3.457871,-4.950129 C 68.154114,59.382337 69,58.286123 69,57.499612 c 0,-2.167256 5.603633,-8.092791 8.972958,-9.488411 1.64019,-0.679389 4.61513,-1.044613 6.610978,-0.811609 3.26869,0.381601 3.850447,0.07019 5.862091,-3.137974 1.228302,-1.95889 2.519823,-5.358082 2.870048,-7.553759 0.350225,-2.195678 1.097381,-4.145678 1.660349,-4.333334 C 95.539391,31.98687 96,31.211666 96,30.45185 96,29.692035 96.9,28.588702 98,28 c 1.309599,-0.700876 2,-2.093823 2,-4.035184 C 100,21.537762 100.41718,21 102.3,21 c 1.265,0 2.82937,-0.529367 3.47637,-1.176371 0.90183,-0.901829 1.63394,-0.762276 3.13699,0.597961 1.07834,0.975883 2.47343,1.457392 3.10022,1.070019 0.62678,-0.387372 1.97989,0.19763 3.0069,1.300004 1.02702,1.102374 2.45506,2.202053 3.17342,2.443731 1.04796,0.352568 1.01917,0.817421 -0.14567,2.352035 -1.13958,1.501329 -1.15034,1.64382 -0.05,0.662621 1.97711,-1.763051 3.95755,-1.551699 4.68515,0.5 0.34134,0.9625 1.32183,2.564972 2.17886,3.56105 1.22582,1.424706 1.28769,1.978255 0.29001,2.594857 -0.81264,0.502235 -1.02884,1.737629 -0.60183,3.43895 C 125.06474,40.394069 124.84976,41 123.60841,41 122.55944,41 122,41.869555 122,43.5 122,45.602259 121.5302,46 119.04705,46 115.25728,46 111,47.936591 111,49.660515 c 0,1.578072 -1.42913,1.715373 -3.92902,0.377474 -1.2868,-0.688674 -3.35216,-0.350111 -7.269056,1.191574 l -5.471523,2.153585 0.390467,4.558426 C 95.182094,63.326068 92.891224,67.70095 88.413146,69.987445 86.810916,70.80554 82.575,73.977965 79,77.037278 c -3.575,3.059313 -8.3,6.876346 -10.5,8.482295 -2.2,1.60595 -4.9,3.775303 -6,4.820786 -2.078531,1.975516 -11.216833,6.632803 -13.048056,6.649872 C 48.478877,96.999301 43.619765,102.1294 39.023755,108 l -1.957216,2.5 -0.01131,-2.5 z M 67.530297,74.196963 C 66.858364,73.52503 64,76.019183 64,77.277432 c 0,0.567899 0.902759,0.215558 2.006131,-0.78298 1.103372,-0.998538 1.789246,-2.032408 1.524166,-2.297489 z"
       id="path6744"
       inkscape:connector-curvature="0" />
    <path
       style="fill:#c26311"
       d="m 0,320.5 0,-4.5 62.520324,0 62.520326,0 -2.1707,-4.25 c -2.8777,-5.63422 -3.13717,-16.62911 -0.5178,-21.94144 2.57591,-5.22418 5.78936,-7.00856 12.62157,-7.00856 7.00085,0 11.12029,1.97283 14.4976,6.94298 1.39077,2.04671 2.53527,3.05433 2.54333,2.23915 0.0287,-2.90593 9.17104,-19.58652 14.66953,-26.76529 3.07588,-4.01584 8.23026,-9.37385 11.45417,-11.9067 3.22391,-2.53284 5.86165,-4.76071 5.86165,-4.95081 0,-0.1901 -3.32362,-7.88621 -7.38582,-17.10248 -4.06221,-9.21627 -7.96477,-18.69048 -8.67236,-21.05381 -1.51789,-5.06968 -4.07043,-5.4046 -6.76331,-0.88742 -1.64128,2.75317 -1.61909,2.85923 1.00013,4.78142 1.47325,1.08119 4.88911,4.98916 7.5908,8.68438 4.10231,5.61091 5.11443,7.89247 6.13899,13.83884 1.02697,5.96028 0.99244,7.67085 -0.21192,10.5 -3.55981,8.36226 -11.93936,11.68491 -21.92426,8.69336 -9.44303,-2.8292 -12.60152,-10.36827 -6.66649,-15.91241 1.70816,-1.59567 3.50816,-2.90121 4,-2.90121 0.49183,0 0.89424,-1.28931 0.89424,-2.86514 0,-1.57583 0.87856,-3.98205 1.95236,-5.34717 l 1.95236,-2.48202 -3.0443,-2.25074 c -4.12701,-3.05124 -6.1719,-8.21247 -5.32173,-13.43186 0.91926,-5.64349 5.18498,-13.24968 9.36134,-16.69219 l 3.46727,-2.85802 -5.25428,-16.50024 c -2.88986,-9.07513 -6.11659,-20.67902 -7.17051,-25.78643 -3.44836,-16.71097 -2.17307,-31.01885 3.44328,-38.63139 2.27967,-3.08991 7.65881,-7.66967 9.87675,-8.40898 0.53121,-0.17707 0.0161,-1.879817 -1.14461,-3.783883 -3.01499,-4.945725 -2.72482,-11.363247 1.0084,-22.30169 2.52644,-7.40255 3.87967,-9.831838 7.0524,-12.660247 2.24477,-2.00116 4.48416,-5.21296 5.2293,-7.5 1.01247,-3.107601 2.20748,-4.4462 5.35638,-6 3.11369,-1.536427 4.19737,-2.7356 4.67535,-5.173611 0.63196,-3.223355 5.84943,-8.687468 9.24453,-9.681533 0.99864,-0.292394 4.51571,-1.278327 7.81571,-2.190962 3.3,-0.912634 7.06307,-2.331621 8.36239,-3.153305 3.05704,-1.933269 10.52116,-0.917035 13.24094,1.802743 1.07754,1.077543 2.22636,3.295105 2.55292,4.927918 0.41498,2.074918 1.18144,2.96875 2.54567,2.96875 3.24897,0 7.8003,5.364374 7.78277,9.173077 -0.02,4.345886 -0.80499,5.436066 -5.25221,7.294235 -3.77146,1.575813 -4.82581,3.59799 -4.43109,8.498489 0.26569,3.298565 -2.69515,4.645058 -13.07651,5.94677 -9.60602,1.204493 -11.1105,1.871386 -17.43204,7.72712 -4.90297,4.541689 -6.77346,5.078576 -11.47108,3.292544 -2.48376,-0.944325 -3.07491,-0.757966 -5.11347,1.612003 -1.87926,2.184774 -2.24993,3.628836 -2.00667,7.817765 L 176.5,95.5 l 5.73591,0.712278 c 12.54215,1.557467 22.37897,9.266482 28.24392,22.134462 5.35886,11.75758 7.78686,24.67327 9.14029,48.62161 0.7796,13.79472 0.0133,13.21126 10.46652,7.9693 9.24702,-4.63708 14.93273,-13.09082 13.52807,-20.11411 -0.32972,-1.64858 -2.15473,-5.5458 -4.05558,-8.66048 -1.90086,-3.11468 -3.75307,-6.90056 -4.11602,-8.41306 -0.36296,-1.5125 -1.22546,-2.75 -1.91666,-2.75 -2.1305,0 -6.52645,-4.04135 -6.52645,-6 0,-1.02016 1.2375,-2.83139 2.75,-4.02494 3.84705,-3.03582 9.63195,-2.26133 15.70945,2.1032 5.39432,3.87391 5.76692,3.63402 7.70454,-4.96039 2.32669,-10.32014 7.88574,-15.02399 11.40603,-9.65134 1.60826,2.45451 1.59078,2.89846 -0.33646,8.54275 -1.78917,5.23991 -1.83511,5.84695 -0.38322,5.06336 0.90731,-0.48968 2.97358,-3.16746 4.5917,-5.95061 1.95165,-3.3568 3.93755,-5.40731 5.89923,-6.09115 3.66225,-1.27667 3.22346,-1.3233 5.0873,0.54055 2.4768,2.4768 1.85853,5.73316 -1.92857,10.15754 -1.925,2.24893 -3.5,4.57992 -3.5,5.17999 0,0.60047 1.74349,1.09104 3.87756,1.09104 5.41438,0 7.10263,2.20187 4.44412,5.79618 -1.85076,2.50223 -5.3569,4.06565 -12.76805,5.69338 -4.85206,1.06567 -8.74263,6.27548 -12.38391,16.58315 -3.70636,10.49187 -8.61547,18.50443 -13.72498,22.40164 -4.17503,3.18445 -14.90021,8.32979 -18.94474,9.08862 l -3,0.56286 0.29509,14.18708 c 0.1623,7.8029 -0.12642,18.46209 -0.64161,23.68709 l -0.93671,9.5 8.38698,17 c 4.61284,9.35 9.23254,18.08414 10.266,19.4092 l 1.87902,2.40919 3.54085,-2.18837 c 1.94746,-1.2036 6.99708,-6.69736 11.22137,-12.20837 9.3456,-12.19228 13.75588,-15.42165 21.06099,-15.42165 8.75985,0 12.72153,5.58773 12.33834,17.40255 -0.15552,4.79493 0.38772,8.27809 1.93677,12.4183 1.20464,3.2197 2.15291,8.07777 2.15291,11.02957 0,4.45232 -0.42906,5.68472 -2.75,7.89887 -7.63467,7.2834 -20.83533,6.07861 -25.49158,-2.32656 -1.49551,-2.69959 -1.77774,-4.65123 -1.33584,-9.2374 0.54605,-5.66704 0.50337,-5.79711 -1.68115,-5.12331 -3.87271,1.19451 -7.17461,3.15269 -9.24379,5.482 -4.16345,4.68686 -9.71587,7.95598 -13.51282,7.95598 -5.42062,0 -8.68534,-3.14956 -13.00696,-12.54815 -2.07577,-4.51434 -4.21283,-8.47903 -4.74903,-8.81042 -0.56838,-0.35128 -1.26377,1.95078 -1.66767,5.52075 -0.55348,4.89214 -1.27518,6.70568 -3.58949,9.01999 l -2.89671,2.89672 -3.94075,-2.01042 c -4.97042,-2.53572 -8.82176,-7.19818 -14.19988,-17.19048 C 192.60225,265.54509 190.23156,262 189.66611,262 c -1.70289,0 -15.30501,10.83736 -17.93067,14.2861 -5.2085,6.84123 -6.95706,11.60151 -6.27968,17.09581 0.34705,2.81495 0.75132,7.14309 0.89838,9.61809 0.14706,2.475 0.63505,6.4125 1.08443,8.75 l 0.81705,4.25 78.37219,0 78.37219,0 0,4.5 0,4.5 -162.5,0 -162.5,0 0,-4.5 z m 161.32213,-31.80869 c 0.86562,-1.75522 2.69791,-5.78 4.07175,-8.94395 2.66185,-6.13024 9.86247,-14.4399 17.67627,-20.39878 4.43272,-3.38043 5.59989,-6.34858 2.49646,-6.34858 -0.67067,0 -5.32389,4.0463 -10.34049,8.99177 -7.49542,7.38915 -9.83017,10.46365 -13.09949,17.25 -4.61935,9.58867 -5.87518,13.9827 -3.76486,13.1729 0.76258,-0.29263 2.09474,-1.96814 2.96036,-3.72336 z m 87.34895,-5.254 C 252.09889,280.82279 258,273.49309 258,271.84996 c 0,-1.90775 -2.81233,-0.63703 -6.05383,2.73536 -4.07872,4.24341 -7.91162,6.41468 -11.32371,6.41468 -3.68057,0 -7.85378,-5.62957 -15.19665,-20.5 -6.12094,-12.3958 -6.39123,-12.76762 -5.81573,-8 0.92316,7.64777 5.5899,20.45579 9.72096,26.6795 6.05807,9.12686 11.41125,10.30539 19.34004,4.25781 z M 214.03787,282.75 c 0.0208,-0.1375 0.68093,-11.95 1.46691,-26.25 1.80523,-32.84446 1.8287,-56.73919 0.0654,-66.62478 -0.77802,-4.36191 -1.12833,-10.51098 -0.81862,-14.36937 0.29777,-3.70952 -0.0252,-11.19087 -0.71778,-16.62522 L 212.77463,149 l -3.3283,0 c -1.83056,0 -3.60641,-0.45 -3.94633,-1 -0.36862,-0.59645 0.84541,-1 3.00837,-1 2.97977,0 3.5362,-0.31205 3.12054,-1.75 -0.27823,-0.9625 -1.26153,-4.9 -2.1851,-8.75 -3.71135,-15.47107 -11.85217,-28.09881 -20.95575,-32.50578 -10.89899,-5.276108 -29.0455,-0.46416 -34.43899,9.13226 -5.06172,9.00611 -3.55788,21.97485 6.36307,54.87352 12.04869,39.95444 19.56045,59.83682 32.30274,85.5 9.55109,19.23604 13.79027,26.16443 17.11287,27.96876 2.50905,1.36254 4.12339,1.85382 4.21012,1.28124 z m -15.30276,-30.82637 c 0.67932,-0.71162 4.05432,-1.48449 7.5,-1.71749 5.10341,-0.34509 6.03591,-0.18376 5.02978,0.87023 -0.67932,0.71162 -4.05432,1.48449 -7.5,1.71749 -5.10341,0.34509 -6.03591,0.18376 -5.02978,-0.87023 z M 188.05743,227.4308 c 2.02866,-2.44438 6.49743,-4.41641 12.5386,-5.53318 4.82085,-0.89119 12.27503,-0.43534 11.15738,0.6823 -0.21428,0.21429 -3.95896,0.88105 -8.32151,1.4817 -4.36254,0.60065 -9.89828,1.95603 -12.30163,3.01197 -3.52319,1.54794 -4.11849,1.61714 -3.07284,0.35721 z m -4.52232,-23.01756 c -1.79768,-2.74361 -1.31279,-4.59092 0.68156,-2.59657 2.58606,2.58606 9.12363,0.6079 12.46191,-3.77078 1.05527,-1.38414 1.24642,-1.37096 1.827,0.12597 0.98179,2.5314 -1.2677,5.8308 -5.05395,7.4128 -5.0892,2.1264 -7.97941,1.78498 -9.91652,-1.17142 z M 173,200.64895 c 0,-1.01661 7.0609,-4.79532 8.23144,-4.40514 0.73805,0.24602 0.23876,1.03515 -1.25187,1.97859 C 177.26841,199.93833 173,201.4223 173,200.64895 Z m 10.59255,-6.04578 c -1.42618,-3.7344 -2.19467,-4.49355 -5.10078,-5.03874 -5.34501,-1.00273 -4.95125,-2.2372 0.90643,-2.84177 6.313,-0.65156 12.58689,-3.61696 15.50727,-7.32962 2.52773,-3.21348 2.63789,-5.13515 0.43399,-7.57043 -2.1581,-2.38467 -1.30575,-3.14049 2.08695,-1.85059 1.48708,0.56539 4.47449,1.02798 6.63869,1.02798 4.7814,0 5.06554,1.48996 0.6849,3.59145 -2.9926,1.43562 -3.2653,1.96553 -3.4432,6.69084 C 200.90038,192.07719 196.09216,199 189.001,199 c -3.48566,0 -3.83898,-0.28723 -5.40845,-4.39683 z M 203,192 c 1.97383,-1.27559 8.71164,-1.27559 9.5,0 0.3853,0.62343 -1.56946,0.99423 -5.19098,0.98469 C 203.1895,192.97383 201.93626,192.68744 203,192 Z m -29.75,-16.48825 c -3.56575,-2.57551 -2.50261,-6.71915 2.39285,-9.32625 3.12073,-1.66195 12.35758,-1.80284 13.34599,-0.20356 1.04724,1.69448 -0.59587,6.35245 -3.01224,8.53924 -2.71768,2.45946 -9.91713,3.01983 -12.7266,0.99057 z M 185,169.5 c 0.68469,-0.825 1.01989,-1.5 0.74489,-1.5 -0.275,0 -1.0602,0.675 -1.74489,1.5 -0.68469,0.825 -1.01989,1.5 -0.74489,1.5 0.275,0 1.0602,-0.675 1.74489,-1.5 z m -19.25,-6.27118 -4.75,-1.57996 0,-6.27737 c 0,-7.42022 1.4705,-11.20049 4.6692,-12.00331 3.29325,-0.82656 5.02663,0.0845 7.32134,3.84824 2.46346,4.04047 2.70509,12.34541 0.45276,15.56107 -1.78517,2.54869 -1.44734,2.52887 -7.6933,0.45133 z m 4.31439,-7.05694 c 1.89763,-0.70198 1.95064,-0.91451 0.52352,-2.09892 C 169.71456,153.34814 169,151.46021 169,149.87756 169,147.72922 168.5242,147 167.12244,147 c -2.52938,0 -3.8016,1.74095 -4.67083,6.3917 -0.63347,3.38938 -0.41924,4.12412 1.65978,5.69232 2.3133,1.74493 2.40963,1.73982 3.11435,-0.16522 0.39997,-1.08122 1.67736,-2.31733 2.83865,-2.74692 z m 14.28613,-1.70083 c -0.32269,-0.84092 -0.39109,-4.2334 -0.152,-7.53884 0.31527,-4.35856 1.00864,-6.58381 2.52345,-8.09863 2.06887,-2.06887 2.12504,-2.07087 5.90555,-0.21116 4.37529,2.15231 6.98434,6.09808 7.92598,11.98678 0.63983,4.00131 0.57848,4.1144 -2.57402,4.7449 -6.06664,1.21333 -12.99681,0.76431 -13.62896,-0.88305 z m 6.1788,-3.56343 c 0.333,-1.04919 1.2605,-1.90762 2.06112,-1.90762 1.22678,0 1.1989,-0.39187 -0.17734,-2.49228 -0.89815,-1.37075 -1.38966,-3.12641 -1.09225,-3.90146 0.58601,-1.52712 -2.95709,-3.00385 -3.82762,-1.59531 -0.91505,1.48058 -1.76406,9.84089 -1.15939,11.41663 0.75121,1.95764 3.39582,0.99954 4.19548,-1.51996 z M 160,138.80998 c 0,-1.68479 2.57236,-4.17593 5.32244,-5.15439 2.58733,-0.92056 5.67756,1.02778 5.67756,3.57959 0,1.68375 -0.26667,1.89815 -1.2,0.96482 -1.71585,-1.71585 -5.83213,-1.4809 -7.97126,0.45499 C 160.27208,140.06375 160,140.08681 160,138.80998 Z m -3,-2.54497 c 0,-2.25004 8.45989,-8.25453 14.38865,-10.21249 5.29017,-1.74706 17.16616,-3.97172 21.52802,-4.03271 3.4601,-0.0484 -0.55216,1.31873 -10.40793,3.54633 -12.25751,2.77044 -18.84382,5.42553 -22.75874,9.17457 -1.5125,1.44841 -2.75,2.13435 -2.75,1.5243 z m 25,-2.00427 c 0,-1.07292 0.83799,-2.70914 1.86221,-3.63604 4.3594,-3.94521 12.13779,-3.72535 12.13779,0.34308 0,2.40163 -1.26262,2.62563 -3,0.53222 -1.95919,-2.36068 -4.94695,-1.7683 -8.09879,1.60576 C 182.41912,135.76284 182,135.9297 182,134.26074 Z m -18,116.20063 c 4.13055,-2.10053 7.29328,-6.14687 7.17279,-9.17672 -0.26826,-6.74572 -0.78652,-10.87443 -1.51066,-12.03465 -0.94366,-1.51196 -8.03867,-1.65403 -10.72787,-0.21482 C 157.814,229.63473 157,231.12214 157,232.56963 c 0,2.43187 0.14154,2.48151 5.25,1.84118 l 5.25,-0.65808 -3.5,2.38137 c -2.00459,1.36389 -4.48885,4.44887 -5.81439,7.22034 -2.09381,4.37778 -2.47505,4.70129 -4,3.39427 C 150.75254,243.80627 146,243.62278 146,246.43267 c 0,1.63758 4.01618,5.25131 6.5,5.84866 2.69344,0.64776 8.4338,-0.2607 11.5,-1.81996 z m -9.48617,-12.28087 c -0.84812,-0.84812 -3.50417,2.02611 -2.85018,3.0843 0.39308,0.636 1.15958,0.32985 1.97866,-0.79031 0.73536,-1.00567 1.12755,-2.03796 0.87152,-2.29399 z m 8.9589,-15.9305 C 159.89755,218.48045 157,212.65451 157,209.23562 c 0,-1.56423 1.37886,-5.0183 3.06414,-7.6757 3.70157,-5.83678 2.68886,-7.90586 -1.95639,-3.99713 -11.10191,9.34164 -7.40316,27.17444 5.68272,27.39807 l 2.29047,0.0391 -2.60821,-2.75 z M 233.5,183.44893 c 7.78432,-3.7118 15.40155,-13.70669 17.16472,-22.52253 0.89066,-4.45331 -2.25992,-3.83514 -4.19757,0.8236 -3.84508,9.24481 -13.79652,18.50106 -21.35199,19.86037 -3.88149,0.69833 -6.11516,2.0264 -6.11516,3.6359 0,1.58094 10.01985,0.33893 14.5,-1.79734 z m 20.25,-29.07922 c 2.86274,-0.76718 2.88212,-1.97115 0.0437,-2.71342 -2.6851,-0.70217 -3.12145,-0.27093 7.14094,-7.05727 4.63903,-3.06771 10.03903,-5.86614 12,-6.21873 4.10008,-0.73721 6.06539,-2.03418 6.06539,-4.00273 0,-1.82112 -3.84332,-1.7588 -8.37788,0.13586 C 267.23288,135.92954 267,135.91 267,134.20959 c 0,-0.99949 1.55762,-3.32696 3.46139,-5.17216 3.35145,-3.24836 6.53861,-8.61411 6.53861,-11.00811 0,-2.42376 -4.53142,-0.42349 -6.48426,2.86231 -2.55645,4.30141 -7.02661,9.10837 -8.4702,9.10837 -2.08003,0 -2.36512,-3.26619 -0.84107,-9.63587 1.1489,-4.80179 1.22601,-6.36413 0.31411,-6.36413 -2.11117,0 -4.66772,3.71202 -5.63267,8.17843 -2.53574,11.73704 -5.243,13.46487 -12.96031,8.2715 -6.71564,-4.51929 -9.46068,-5.18065 -11.99255,-2.88934 -1.96762,1.78067 -1.95969,1.80885 0.83987,2.98598 4.28552,1.80192 7.801,6.65311 10.26854,14.17007 1.2247,3.73085 2.63221,7.57086 3.12782,8.53336 0.92046,1.78763 4.39605,2.24116 8.58072,1.11971 z m -3.72339,-11.19663 c -0.0354,-3.0974 5.14234,-8.17308 8.33745,-8.17308 3.08892,0 4.43541,1.79649 1.94932,2.6008 -5.48445,1.77435 -7.04765,2.71913 -8.57572,5.1831 -1.6551,2.66879 -1.6849,2.67556 -1.71105,0.38918 z M 91,126.95929 75.5,116.10566 57.413518,116.701 39.327036,117.29634 33.413518,114.59403 C 27.167852,111.73994 21.709653,107.17884 19.502441,102.96937 18.772635,101.57752 15.800638,84.653532 12.898003,65.360502 7.6709458,30.617654 7.6368837,30.239329 9.3354597,25.791671 11.705666,19.585374 17.053319,13.665246 22.677145,11.021736 27.667462,8.67601 27.084579,8.6858484 50.5,10.552119 c 8.048879,0.641517 59.58979,4.247385 71.5,5.002231 14.66709,0.929573 21.51897,4.941497 25.03175,14.656635 1.17706,3.255337 0.9351,7.798332 -1.97063,37 -3.64064,36.587195 -4.36311,39.629365 -10.52819,44.331695 -3.44269,2.62587 -4.63401,2.88748 -16.8425,3.69853 -7.22576,0.48003 -13.23871,0.97374 -13.3621,1.09713 -0.1234,0.12339 0.81584,4.71024 2.08718,10.19301 2.19969,9.48633 2.34292,11.5873 0.77547,11.37511 C 106.81094,137.85501 99.525,132.92878 91,126.95929 Z m 11.96152,-2.46999 c -2.89191,-12.20378 -3.284724,-11.48405 6.28848,-11.52202 14.16529,-0.0562 21.55935,-1.41045 24.83497,-4.54868 1.57784,-1.51167 3.30718,-4.13677 3.84297,-5.83355 1.46884,-4.651619 7.34891,-64.436491 6.80884,-69.228012 -0.25879,-2.295899 -1.46832,-5.575652 -2.68786,-7.28834 C 137.38511,19.518985 137.12928,19.474602 81.028106,15.482524 52.805315,13.474232 28.176455,12.119517 26.297306,12.472048 19.420253,13.762191 11.074742,24.158352 11.022629,31.5 c -0.01171,1.65 2.199023,17.749343 4.912744,35.776317 5.380198,35.740113 5.871914,37.349303 12.813665,41.933933 7.023333,4.63851 10.242826,5.13242 29.357103,4.50371 l 17.680686,-0.58156 14.356587,9.83766 c 7.896122,5.41072 14.436396,9.76361 14.533946,9.67311 0.0976,-0.0905 -0.67458,-3.75975 -1.71584,-8.15387 z M 37.120616,108.5 c 0.0602,-3.81713 2.562678,-9.021182 6.251336,-13 C 49.465423,88.9272 55.65762,80.658524 56.48022,77.996033 56.904364,76.623215 58.544828,73.564941 60.125695,71.199868 61.706563,68.834795 63,66.487954 63,65.984664 c 0,-0.503289 1.35,-2.452637 3,-4.331883 1.65,-1.879246 3,-3.817375 3,-4.306952 0,-0.489578 1.355489,-2.534584 3.012197,-4.544458 3.394355,-4.117942 8.651686,-6.279878 13.398155,-5.509632 2.932867,0.475939 3.366547,0.178755 5.307083,-3.636723 C 91.879708,41.369757 93.114151,37.8125 93.460642,35.75 93.807133,33.6875 94.520235,32 95.045313,32 95.570391,32 96,31.340833 96,30.535184 96,29.729535 96.9,28.588702 98,28 c 1.309599,-0.700876 2,-2.093823 2,-4.035184 C 100,21.537762 100.41718,21 102.3,21 c 1.265,0 2.82937,-0.529367 3.47637,-1.176371 0.90183,-0.901829 1.63394,-0.762276 3.13699,0.597961 1.07834,0.975883 2.47343,1.457392 3.10022,1.070019 0.62678,-0.387372 1.97989,0.19763 3.0069,1.300004 1.02702,1.102374 2.45506,2.202053 3.17342,2.443731 1.04796,0.352568 1.01917,0.817421 -0.14567,2.352035 -1.13958,1.501329 -1.15034,1.64382 -0.05,0.662621 1.97711,-1.763051 3.95755,-1.551699 4.68515,0.5 0.34134,0.9625 1.32183,2.564972 2.17886,3.56105 1.22582,1.424706 1.28769,1.978255 0.29001,2.594857 -0.81264,0.502235 -1.02884,1.737629 -0.60183,3.43895 C 125.06474,40.394069 124.84976,41 123.60841,41 122.55944,41 122,41.869555 122,43.5 122,45.602259 121.5302,46 119.04705,46 115.25728,46 111,47.936591 111,49.660515 c 0,1.578072 -1.42913,1.715373 -3.92902,0.377474 -1.28763,-0.689123 -3.36156,-0.346411 -7.31118,1.208154 l -5.513648,2.170165 0.527682,3.934168 C 95.43358,62.269249 93.101121,66.927207 88.689347,69.501294 86.935206,70.524763 82.35,74.003875 78.5,77.232654 63.779906,89.577572 57.815306,93.865554 52.909884,95.629519 c -4.773405,1.716493 -8.988851,5.455571 -14.115346,12.520231 -1.584239,2.18319 -1.703221,2.20809 -1.673922,0.35025 z M 65.899915,77.75 C 70.777612,72.922967 72.679614,70 70.942913,70 c -1.226854,0 -6.5857,3.938189 -6.21564,4.567843 0.125,0.212686 -0.8875,1.501475 -2.25,2.863975 C 60.026122,79.882969 59.250054,82 60.802654,82 c 0.441459,0 2.735227,-1.9125 5.097261,-4.25 z"
       id="path6742"
       inkscape:connector-curvature="0" />
    <path
       style="fill:#43a035"
       d="m 0,320.5 0,-4.5 62.520324,0 62.520326,0 -2.1707,-4.25 c -2.8777,-5.63422 -3.13717,-16.62911 -0.5178,-21.94144 2.57591,-5.22418 5.78936,-7.00856 12.62157,-7.00856 7.00085,0 11.12029,1.97283 14.4976,6.94298 1.39077,2.04671 2.53527,3.05433 2.54333,2.23915 0.0287,-2.90593 9.17104,-19.58652 14.66953,-26.76529 3.07588,-4.01584 8.23026,-9.37385 11.45417,-11.9067 3.22391,-2.53284 5.86165,-4.76071 5.86165,-4.95081 0,-0.1901 -3.32362,-7.88621 -7.38582,-17.10248 -4.06221,-9.21627 -7.96477,-18.69048 -8.67236,-21.05381 -1.51789,-5.06968 -4.07043,-5.4046 -6.76331,-0.88742 -1.64128,2.75317 -1.61909,2.85923 1.00013,4.78142 1.47325,1.08119 4.88911,4.98916 7.5908,8.68438 4.10231,5.61091 5.11443,7.89247 6.13899,13.83884 1.02697,5.96028 0.99244,7.67085 -0.21192,10.5 -3.55981,8.36226 -11.93936,11.68491 -21.92426,8.69336 -9.44303,-2.8292 -12.60152,-10.36827 -6.66649,-15.91241 1.70816,-1.59567 3.50816,-2.90121 4,-2.90121 0.49183,0 0.89424,-1.28931 0.89424,-2.86514 0,-1.57583 0.87856,-3.98205 1.95236,-5.34717 l 1.95236,-2.48202 -3.0443,-2.25074 c -4.12701,-3.05124 -6.1719,-8.21247 -5.32173,-13.43186 0.91926,-5.64349 5.18498,-13.24968 9.36134,-16.69219 l 3.46727,-2.85802 -5.25428,-16.50024 c -2.88986,-9.07513 -6.11659,-20.67902 -7.17051,-25.78643 -3.44836,-16.71097 -2.17307,-31.01885 3.44328,-38.63139 2.27967,-3.08991 7.65881,-7.66967 9.87675,-8.40898 0.53121,-0.17707 0.0161,-1.879817 -1.14461,-3.783883 -3.01499,-4.945725 -2.72482,-11.363247 1.0084,-22.30169 2.52644,-7.40255 3.87967,-9.831838 7.0524,-12.660247 2.24477,-2.00116 4.48416,-5.21296 5.2293,-7.5 1.01247,-3.107601 2.20748,-4.4462 5.35638,-6 3.11369,-1.536427 4.19737,-2.7356 4.67535,-5.173611 0.63196,-3.223355 5.84943,-8.687468 9.24453,-9.681533 0.99864,-0.292394 4.51571,-1.278327 7.81571,-2.190962 3.3,-0.912634 7.06307,-2.331621 8.36239,-3.153305 3.05704,-1.933269 10.52116,-0.917035 13.24094,1.802743 1.07754,1.077543 2.22636,3.295105 2.55292,4.927918 0.41498,2.074918 1.18144,2.96875 2.54567,2.96875 3.24897,0 7.8003,5.364374 7.78277,9.173077 -0.02,4.345886 -0.80499,5.436066 -5.25221,7.294235 -3.77146,1.575813 -4.82581,3.59799 -4.43109,8.498489 0.26569,3.298565 -2.69515,4.645058 -13.07651,5.94677 -9.60602,1.204493 -11.1105,1.871386 -17.43204,7.72712 -4.90297,4.541689 -6.77346,5.078576 -11.47108,3.292544 -2.48376,-0.944325 -3.07491,-0.757966 -5.11347,1.612003 -1.87926,2.184774 -2.24993,3.628836 -2.00667,7.817765 L 176.5,95.5 l 5.73591,0.712278 c 12.54215,1.557467 22.37897,9.266482 28.24392,22.134462 5.35886,11.75758 7.78686,24.67327 9.14029,48.62161 0.7796,13.79472 0.0133,13.21126 10.46652,7.9693 9.24702,-4.63708 14.93273,-13.09082 13.52807,-20.11411 -0.32972,-1.64858 -2.15473,-5.5458 -4.05558,-8.66048 -1.90086,-3.11468 -3.75307,-6.90056 -4.11602,-8.41306 -0.36296,-1.5125 -1.22546,-2.75 -1.91666,-2.75 -2.1305,0 -6.52645,-4.04135 -6.52645,-6 0,-1.02016 1.2375,-2.83139 2.75,-4.02494 3.84705,-3.03582 9.63195,-2.26133 15.70945,2.1032 5.39432,3.87391 5.76692,3.63402 7.70454,-4.96039 2.32669,-10.32014 7.88574,-15.02399 11.40603,-9.65134 1.60826,2.45451 1.59078,2.89846 -0.33646,8.54275 -1.78917,5.23991 -1.83511,5.84695 -0.38322,5.06336 0.90731,-0.48968 2.97358,-3.16746 4.5917,-5.95061 1.95165,-3.3568 3.93755,-5.40731 5.89923,-6.09115 3.66225,-1.27667 3.22346,-1.3233 5.0873,0.54055 2.4768,2.4768 1.85853,5.73316 -1.92857,10.15754 -1.925,2.24893 -3.5,4.57992 -3.5,5.17999 0,0.60047 1.74349,1.09104 3.87756,1.09104 5.41438,0 7.10263,2.20187 4.44412,5.79618 -1.85076,2.50223 -5.3569,4.06565 -12.76805,5.69338 -4.85206,1.06567 -8.74263,6.27548 -12.38391,16.58315 -3.70636,10.49187 -8.61547,18.50443 -13.72498,22.40164 -4.17503,3.18445 -14.90021,8.32979 -18.94474,9.08862 l -3,0.56286 0.29509,14.18708 c 0.1623,7.8029 -0.12642,18.46209 -0.64161,23.68709 l -0.93671,9.5 8.38698,17 c 4.61284,9.35 9.23254,18.08414 10.266,19.4092 l 1.87902,2.40919 3.54085,-2.18837 c 1.94746,-1.2036 6.99708,-6.69736 11.22137,-12.20837 9.3456,-12.19228 13.75588,-15.42165 21.06099,-15.42165 8.75985,0 12.72153,5.58773 12.33834,17.40255 -0.15552,4.79493 0.38772,8.27809 1.93677,12.4183 1.20464,3.2197 2.15291,8.07777 2.15291,11.02957 0,4.45232 -0.42906,5.68472 -2.75,7.89887 -7.63467,7.2834 -20.83533,6.07861 -25.49158,-2.32656 -1.49551,-2.69959 -1.77774,-4.65123 -1.33584,-9.2374 0.54605,-5.66704 0.50337,-5.79711 -1.68115,-5.12331 -3.87271,1.19451 -7.17461,3.15269 -9.24379,5.482 -4.16345,4.68686 -9.71587,7.95598 -13.51282,7.95598 -5.42062,0 -8.68534,-3.14956 -13.00696,-12.54815 -2.07577,-4.51434 -4.21283,-8.47903 -4.74903,-8.81042 -0.56838,-0.35128 -1.26377,1.95078 -1.66767,5.52075 -0.55348,4.89214 -1.27518,6.70568 -3.58949,9.01999 l -2.89671,2.89672 -3.94075,-2.01042 c -4.97042,-2.53572 -8.82176,-7.19818 -14.19988,-17.19048 C 192.60225,265.54509 190.23156,262 189.66611,262 c -1.70289,0 -15.30501,10.83736 -17.93067,14.2861 -5.2085,6.84123 -6.95706,11.60151 -6.27968,17.09581 0.34705,2.81495 0.75132,7.14309 0.89838,9.61809 0.14706,2.475 0.63505,6.4125 1.08443,8.75 l 0.81705,4.25 78.37219,0 78.37219,0 0,4.5 0,4.5 -162.5,0 -162.5,0 0,-4.5 z m 161.35955,-6.79643 c 1.14593,-4.56575 -0.68631,-8.1021 -4.92598,-9.50749 -5.09408,-1.68861 -7.08952,-3.64284 -2.93357,-2.873 1.65,0.30565 4.2375,0.86045 5.75,1.2329 2.30703,0.56809 2.75,0.35596 2.75,-1.31696 0,-2.75754 -1.85763,-4.03788 -6.40773,-4.41642 -3.40249,-0.28306 -4.08004,0.0366 -5.52817,2.60845 -2.08641,3.70537 -4.0641,4.44421 -4.0641,1.5183 0,-3.66476 -2.18784,-9.80937 -4.11308,-11.55168 -2.13458,-1.93177 -9.3263,-2.10783 -11.52609,-0.28217 -4.35891,3.61758 -5.67857,12.79494 -2.82269,19.63002 3.00296,7.1871 3.1795,7.25448 19.00844,7.25448 14.01518,0 14.24557,-0.0357 14.81297,-2.29643 z M 285.6,292.6 c 4.30788,-4.30788 4.4998,-8.98378 0.75641,-18.42944 -5.30928,-13.39686 -12.71588,-21.6541 -17.24779,-19.22869 -2.31138,1.23701 -3.43747,3.93287 -2.2702,5.43488 0.48011,0.61779 1.42117,3.36727 2.09125,6.10995 0.67008,2.74269 1.64325,5.4987 2.1626,6.12448 0.61291,0.73851 0.23602,2.79005 -1.074,5.8462 -2.62146,6.11561 -2.60173,11.53115 0.0543,14.90776 1.74802,2.22224 2.85987,2.63486 7.1,2.63486 4.38412,0 5.46247,-0.43505 8.42742,-3.4 z m -123.12958,-5.78924 c 4.37243,-10.30556 5.93567,-13.04612 10.05501,-17.62782 2.40117,-2.67067 6.83814,-6.7632 9.85994,-9.0945 3.49492,-2.69631 5.29522,-4.75722 4.94742,-5.66359 -0.89106,-2.32206 -2.14388,-1.7202 -9.00307,4.32515 -11.01608,9.70902 -18.04867,20.4175 -20.72145,31.55242 -0.60053,2.50181 -0.47392,2.69605 1.18025,1.81076 1.01911,-0.54541 2.67597,-2.9315 3.6819,-5.30242 z m 84.9981,-2.62827 C 251.34103,281.51527 258,273.76322 258,271.92226 c 0,-1.91117 -2.93328,-0.8118 -5.66523,2.12328 -3.86294,4.15015 -8.5526,6.95446 -11.63,6.95446 -3.785,0 -7.90102,-5.53487 -15.24489,-20.5 -6.12671,-12.48484 -6.35762,-12.80186 -5.82707,-8 1.40329,12.70088 8.87098,28.78984 15.45708,33.30195 3.96487,2.71631 6.5804,2.37412 12.37863,-1.61946 z M 215.0206,275.25 c 0.0113,-4.2625 0.46884,-14.5 1.01669,-22.75 1.62159,-24.41928 1.40498,-55.74504 -0.44596,-64.4939 -1.23011,-5.81434 -1.33889,-8.24098 -0.48535,-10.82722 0.81355,-2.46509 0.77776,-5.96466 -0.13742,-13.43557 -1.81101,-14.78385 -2.00979,-15.30516 -5.69222,-14.92835 -1.6929,0.17323 -3.41155,-0.22472 -3.81922,-0.88434 -0.53652,-0.86811 0.13867,-1.07018 2.44486,-0.7317 1.75234,0.25719 3.41965,0.0897 3.70512,-0.37222 0.77873,-1.26 -3.51596,-17.55287 -6.26953,-23.7849 C 196.74359,103.59145 181.20339,96.704197 163.91651,104.68441 154.33291,109.10852 151,114.78709 151,126.69138 c 0,8.71511 1.94598,17.4752 9.43809,42.48692 11.73576,39.17878 21.41028,64.13485 35.37411,91.24991 C 203.78634,275.91245 209.1347,283 212.84516,283 c 2.01932,0 2.15614,-0.48741 2.17544,-7.75 z M 201.5,251 c 2.85239,-1.22572 9.75753,-1.22572 9,0 -0.33992,0.55 -2.95398,0.96837 -5.80902,0.92971 C 200.86849,251.87796 200.02726,251.63286 201.5,251 Z m -11.42738,-25.05478 c 3.53706,-2.66801 9.6785,-4.11126 15.93044,-3.74369 l 5.49694,0.32318 -6,0.78637 c -3.3,0.4325 -8.66462,1.61205 -11.92138,2.62122 -5.70982,1.7693 -5.83509,1.76976 -3.506,0.0129 z m -6.03366,-21.13378 c -2.57555,-2.76452 -2.62824,-4.19718 -0.1047,-2.84662 3.51896,1.88328 7.6908,1.18785 10.90913,-1.81853 2.12764,-1.98751 3.20515,-2.46218 3.54988,-1.56382 0.81594,2.12631 -3.22939,6.27786 -7.18876,7.37751 -4.89683,1.36001 -4.81648,1.37289 -7.16555,-1.14854 z M 175,199.52568 c 0,-0.79127 6.14926,-3.70975 6.68586,-3.17315 0.275,0.275 -0.86947,1.20818 -2.54327,2.07373 C 175.96987,200.06694 175,200.32434 175,199.52568 Z m 9.15369,-4.40705 c -1.32742,-4.43054 -2.61127,-5.75377 -6.15369,-6.34244 -2.7744,-0.46104 -3.13454,-0.31633 7.26313,-2.91855 3.88666,-0.97272 10.03345,-5.67476 11.84616,-9.06184 0.7764,-1.45073 0.61481,-2.56793 -0.65082,-4.49953 l -1.68367,-2.56961 2.8626,0.84745 c 1.57443,0.4661 4.52003,0.84423 6.54578,0.84028 4.10792,-0.008 4.07054,0.88592 -0.12782,3.05698 -2.54992,1.31862 -2.85814,2.05476 -3.24192,7.74289 C 200.09653,192.83957 195.48717,199 188.254,199 c -2.54563,0 -3.09253,-0.5177 -4.10031,-3.88137 z m 8.6238,0.32467 c 1.22238,-0.85619 2.22251,-2.43119 2.22251,-3.5 0,-2.35374 -1.5471,-2.56591 -2.40516,-0.32985 -0.38394,1.00053 -1.34976,1.4224 -2.54241,1.11051 -1.96341,-0.51344 -3.56219,1.64222 -2.49666,3.36628 0.83021,1.34331 2.71333,1.11 5.22172,-0.64694 z M 203.5,192 c 2.78729,-1.19774 7.25976,-1.19774 8,0 0.38424,0.62171 -1.39034,0.97341 -4.69098,0.92971 C 202.92008,192.87823 202.03497,192.62955 203.5,192 Z m -29.49114,-16.28986 c -3.37173,-1.7059 -3.58374,-3.93028 -0.69472,-7.28895 2.09875,-2.43995 3.28859,-2.86478 9.05113,-3.23171 6.6178,-0.42139 6.63473,-0.4157 6.63473,2.22921 0,3.70855 -2.57957,7.2391 -6.21521,8.50649 -3.95966,1.38034 -5.70728,1.33752 -8.77593,-0.21504 z m 10.27887,-5.51057 c 1.62697,-1.43595 1.64204,-1.65937 0.16756,-2.48453 -2.37465,-1.32892 -8.2731,0.076 -9.43515,2.24732 -0.72082,1.34688 -0.65371,2.02088 0.23785,2.38869 1.94851,0.80387 7.0616,-0.41441 9.02974,-2.15148 z m -17.56486,-7.02353 c -5.45898,-1.76441 -6.24635,-3.37629 -5.49071,-11.2404 0.80918,-8.42127 5.5991,-11.37879 10.26861,-6.34031 3.86776,4.17338 4.55289,13.45645 1.29266,17.5147 -1.17841,1.46685 -1.71825,1.47272 -6.07056,0.066 z m 3.34152,-7.00416 c 1.89763,-0.70198 1.95064,-0.91451 0.52352,-2.09892 C 169.71456,153.34814 169,151.46021 169,149.87756 169,147.72922 168.5242,147 167.12244,147 c -2.52938,0 -3.8016,1.74095 -4.67083,6.3917 -0.63347,3.38938 -0.41924,4.12412 1.65978,5.69232 2.3133,1.74493 2.40963,1.73982 3.11435,-0.16522 0.39997,-1.08122 1.67736,-2.31733 2.83865,-2.74692 z M 185.25,155.33772 c -1.73012,-0.69812 -1.60304,-9.55702 0.19897,-13.86984 1.1692,-2.79827 1.98982,-3.46359 4.25,-3.44564 5.09454,0.0404 9.97481,6.11518 10.53674,13.11566 0.23506,2.92832 -0.0675,3.36618 -2.73571,3.95897 -3.61518,0.80317 -10.51998,0.93893 -12.25,0.24085 z m 5.27932,-4.4301 c 0.333,-1.04919 1.2605,-1.90762 2.06112,-1.90762 1.22678,0 1.1989,-0.39187 -0.17734,-2.49228 -0.89815,-1.37075 -1.38966,-3.12641 -1.09225,-3.90146 0.58601,-1.52712 -2.95709,-3.00385 -3.82762,-1.59531 -0.91505,1.48058 -1.76406,9.84089 -1.15939,11.41663 0.75121,1.95764 3.39582,0.99954 4.19548,-1.51996 z M 160,138.1455 c 0,-3.59835 10.13899,-5.46042 10.79791,-1.98308 0.26462,1.39649 -0.33233,1.57559 -3.73188,1.11961 -2.52522,-0.3387 -4.61451,-0.0717 -5.55646,0.71003 C 160.50525,138.82557 160,138.87692 160,138.1455 Z m 22.01109,-2.81371 c -0.0236,-2.48732 1.34405,-4.46408 4.06043,-5.86878 4.99725,-2.58417 9.92848,-1.39614 9.92848,2.39198 0,1.2004 -0.31998,1.16541 -1.82874,-0.2 -2.97107,-2.68878 -6.70053,-2.06835 -9.58769,1.59501 -1.40877,1.7875 -2.56638,2.7243 -2.57248,2.08179 z M 159.5,133.10267 c 1.1,-1.27536 4.025,-3.33912 6.5,-4.58612 4.93714,-2.48753 17.27544,-5.57097 21.69741,-5.42236 1.54142,0.0518 -1.57316,1.16062 -6.92129,2.46404 -9.61522,2.34337 -14.44242,4.23663 -20.27612,7.95242 l -3,1.91085 2,-2.31883 z M 265,269.89553 c 0,-3.21209 -4.27027,-8.46456 -6.00838,-7.39035 -1.69387,1.04687 -1.09017,4.37171 0.99657,5.4885 1.09351,0.58523 2.26651,2.17295 2.60668,3.52827 0.8141,3.24365 2.40513,2.16775 2.40513,-1.62642 z m 20.63403,-6.97537 c -0.9923,-4.96153 -3.67289,-9.79772 -5.80589,-10.47471 -2.72106,-0.86363 -3.45811,0.19056 -1.60696,2.29842 0.84824,0.96587 1.86734,2.88113 2.26466,4.25613 1.83393,6.3466 6.31608,9.7596 5.14819,3.92016 z M 164,250.46137 c 4.13055,-2.10053 7.29328,-6.14687 7.17279,-9.17672 -0.26826,-6.74572 -0.78652,-10.87443 -1.51066,-12.03465 -0.94366,-1.51196 -8.03867,-1.65403 -10.72787,-0.21482 C 157.814,229.63473 157,231.12214 157,232.56963 c 0,2.43187 0.14154,2.48151 5.25,1.84118 l 5.25,-0.65808 -3.5,2.38137 c -2.00459,1.36389 -4.48885,4.44887 -5.81439,7.22034 -2.09381,4.37778 -2.47505,4.70129 -4,3.39427 C 150.75254,243.80627 146,243.62278 146,246.43267 c 0,1.63758 4.01618,5.25131 6.5,5.84866 2.69344,0.64776 8.4338,-0.2607 11.5,-1.81996 z m -9.48617,-12.28087 c -0.84812,-0.84812 -3.50417,2.02611 -2.85018,3.0843 0.39308,0.636 1.15958,0.32985 1.97866,-0.79031 0.73536,-1.00567 1.12755,-2.03796 0.87152,-2.29399 z m 8.92139,-15.9305 c -1.45514,-1.5125 -3.54364,-4.71729 -4.64112,-7.12175 -2.36729,-5.18652 -1.90813,-8.84645 1.81581,-14.4737 1.78779,-2.70154 2.24879,-4.19585 1.51945,-4.92519 -0.72934,-0.72934 -2.24395,0.14994 -4.99208,2.89807 -5.86398,5.86398 -7.42964,14.04867 -3.95515,20.67608 1.36055,2.59517 6.85303,5.68839 10.10834,5.69275 l 2.79047,0.004 -2.64572,-2.75 z m 70.10029,-38.81013 c 6.58427,-3.11485 12.72906,-9.95745 15.47056,-17.22738 C 251.3822,159.91145 251.50398,158 249.5293,158 c -0.80889,0 -2.61215,2.4128 -4.00724,5.36179 -3.29286,6.96054 -11.53567,14.75703 -18.02497,17.04899 -6.50223,2.29652 -7.79621,2.98657 -8.2709,4.41066 -0.74623,2.23868 8.55506,1.34064 14.30932,-1.38157 z M 253.75,154.36971 c 2.86274,-0.76718 2.88212,-1.97115 0.0437,-2.71342 -2.6851,-0.70217 -3.12145,-0.27093 7.14094,-7.05727 4.63903,-3.06771 10.03903,-5.86614 12,-6.21873 4.10008,-0.73721 6.06539,-2.03418 6.06539,-4.00273 0,-1.82112 -3.84332,-1.7588 -8.37788,0.13586 C 267.23288,135.92954 267,135.91 267,134.20959 c 0,-0.99949 1.55762,-3.32696 3.46139,-5.17216 3.35145,-3.24836 6.53861,-8.61411 6.53861,-11.00811 0,-2.42376 -4.53142,-0.42349 -6.48426,2.86231 -2.55645,4.30141 -7.02661,9.10837 -8.4702,9.10837 -2.08003,0 -2.36512,-3.26619 -0.84107,-9.63587 1.1489,-4.80179 1.22601,-6.36413 0.31411,-6.36413 -2.11117,0 -4.66772,3.71202 -5.63267,8.17843 -2.53574,11.73704 -5.243,13.46487 -12.96031,8.2715 -6.71564,-4.51929 -9.46068,-5.18065 -11.99255,-2.88934 -1.96762,1.78067 -1.95969,1.80885 0.83987,2.98598 4.28552,1.80192 7.801,6.65311 10.26854,14.17007 1.2247,3.73085 2.63221,7.57086 3.12782,8.53336 0.92046,1.78763 4.39605,2.24116 8.58072,1.11971 z m -3.72339,-11.19663 c -0.0354,-3.0974 5.14234,-8.17308 8.33745,-8.17308 3.08892,0 4.43541,1.79649 1.94932,2.6008 -5.48445,1.77435 -7.04765,2.71913 -8.57572,5.1831 -1.6551,2.66879 -1.6849,2.67556 -1.71105,0.38918 z M 91,126.95929 75.5,116.10566 57.413518,116.701 39.327036,117.29634 33.413518,114.59403 C 27.167852,111.73994 21.709653,107.17884 19.502441,102.96937 18.772635,101.57752 15.800638,84.653532 12.898003,65.360502 7.6709458,30.617654 7.6368837,30.239329 9.3354597,25.791671 11.705666,19.585374 17.053319,13.665246 22.677145,11.021736 27.667462,8.67601 27.084579,8.6858484 50.5,10.552119 c 8.048879,0.641517 59.58979,4.247385 71.5,5.002231 14.66709,0.929573 21.51897,4.941497 25.03175,14.656635 1.17706,3.255337 0.9351,7.798332 -1.97063,37 -3.64064,36.587195 -4.36311,39.629365 -10.52819,44.331695 -3.44269,2.62587 -4.63401,2.88748 -16.8425,3.69853 -7.22576,0.48003 -13.23871,0.97374 -13.3621,1.09713 -0.1234,0.12339 0.81584,4.71024 2.08718,10.19301 2.19969,9.48633 2.34292,11.5873 0.77547,11.37511 C 106.81094,137.85501 99.525,132.92878 91,126.95929 Z m 11.96152,-2.46999 c -2.89191,-12.20378 -3.284724,-11.48405 6.28848,-11.52202 14.16529,-0.0562 21.55935,-1.41045 24.83497,-4.54868 1.57784,-1.51167 3.30718,-4.13677 3.84297,-5.83355 1.46884,-4.651619 7.34891,-64.436491 6.80884,-69.228012 -0.25879,-2.295899 -1.46832,-5.575652 -2.68786,-7.28834 C 137.38511,19.518985 137.12928,19.474602 81.028106,15.482524 52.805315,13.474232 28.176455,12.119517 26.297306,12.472048 19.420253,13.762191 11.074742,24.158352 11.022629,31.5 c -0.01171,1.65 2.199023,17.749343 4.912744,35.776317 5.380198,35.740113 5.871914,37.349303 12.813665,41.933933 7.023333,4.63851 10.242826,5.13242 29.357103,4.50371 l 17.680686,-0.58156 14.356587,9.83766 c 7.896122,5.41072 14.436396,9.76361 14.533946,9.67311 0.0976,-0.0905 -0.67458,-3.75975 -1.71584,-8.15387 z M 37.044538,109.11602 c -0.11659,-3.62297 2.673975,-9.588927 6.371435,-13.621506 C 51.494453,86.683841 57,79.269455 57,77.200745 c 0,-0.775883 1.35,-3.411016 3,-5.855852 1.65,-2.444837 3,-4.856939 3,-5.360229 0,-0.503289 1.35,-2.452637 3,-4.331883 1.65,-1.879246 3,-3.817375 3,-4.306952 0,-0.489578 1.355489,-2.534584 3.012197,-4.544458 3.394355,-4.117942 8.651686,-6.279878 13.398155,-5.509632 2.932867,0.475939 3.366547,0.178755 5.307083,-3.636723 C 91.879708,41.369757 93.114151,37.8125 93.460642,35.75 93.807133,33.6875 94.520235,32 95.045313,32 95.570391,32 96,31.340833 96,30.535184 96,29.729535 96.9,28.588702 98,28 c 1.309599,-0.700876 2,-2.093823 2,-4.035184 C 100,21.537762 100.41718,21 102.3,21 c 1.265,0 2.82937,-0.529367 3.47637,-1.176371 0.90183,-0.901829 1.63394,-0.762276 3.13699,0.597961 1.07834,0.975883 2.47343,1.457392 3.10022,1.070019 0.62678,-0.387372 1.97989,0.19763 3.0069,1.300004 1.02702,1.102374 2.45506,2.202053 3.17342,2.443731 1.04796,0.352568 1.01917,0.817421 -0.14567,2.352035 -1.13958,1.501329 -1.15034,1.64382 -0.05,0.662621 1.97711,-1.763051 3.95755,-1.551699 4.68515,0.5 0.34134,0.9625 1.32183,2.564972 2.17886,3.56105 1.22582,1.424706 1.28769,1.978255 0.29001,2.594857 -0.81264,0.502235 -1.02884,1.737629 -0.60183,3.43895 C 125.06474,40.394069 124.84976,41 123.60841,41 122.55944,41 122,41.869555 122,43.5 122,45.602259 121.5302,46 119.04705,46 115.25728,46 111,47.936591 111,49.660515 c 0,1.578072 -1.42913,1.715373 -3.92902,0.377474 -1.28763,-0.689123 -3.36156,-0.346411 -7.31118,1.208154 l -5.513648,2.170165 0.527682,3.934168 C 95.43358,62.269249 93.101121,66.927207 88.689347,69.501294 86.935206,70.524763 82.35,74.003875 78.5,77.232654 63.779906,89.577572 57.815306,93.865554 52.909884,95.629519 c -4.773405,1.716493 -8.988851,5.455571 -14.115346,12.520231 -1.021081,1.40712 -1.723335,1.79487 -1.75,0.96627 z M 52.804064,94.00604 c 7.702325,-3.602589 11.146722,-6.474059 11.311937,-9.430354 0.09179,-1.642395 0.210224,-1.716832 0.567373,-0.356592 0.383821,1.461824 1.189629,1.167932 5.38447,-1.963808 2.713205,-2.025595 5.190286,-4.493222 5.504625,-5.483614 0.314338,-0.990393 0.981982,-1.547036 1.483654,-1.236986 0.501672,0.31005 2.606773,-1.140558 4.678004,-3.223575 2.07123,-2.083016 4.068299,-3.69185 4.43793,-3.575187 0.369632,0.116663 2.057132,-1.081739 3.75,-2.663115 C 92.414094,63.744898 93,62.398314 93,58.99879 93,55.557029 92.386991,54.186991 89.6,51.4 87.73,49.53 85.465547,48 84.567881,48 c -3.098171,0 -8.255062,2.773729 -11.399692,6.131536 -3.126955,3.338933 -3.134945,3.374165 -0.9114,4.018784 L 74.5,58.80064 72.32258,58.90032 C 70.187059,58.998082 66,63.249714 66,65.320407 c 0,0.57788 -0.962594,2.075325 -2.139097,3.327655 -2.189737,2.330868 -3.112054,3.819011 -6.770085,10.923416 -1.153013,2.239312 -3.644376,5.811463 -5.536361,7.938111 -1.891985,2.126649 -3.245116,4.181918 -3.006958,4.567266 0.238157,0.385347 -1.138075,1.898959 -3.058294,3.363581 C 42.513492,97.710123 39,102.58997 39,104.45322 c 0,0.3039 1.599329,-1.21772 3.554064,-3.38138 2.041416,-2.259605 6.403928,-5.266886 10.25,-7.0658 z"
       id="path6740"
       inkscape:connector-curvature="0" />
    <path
       style="fill:#0d0d07"
       d="m 0,320.5 0,-4.5 62.52568,0 62.52568,0 -1.68693,-3.25 c -2.16197,-4.1652 -2.98274,-16.34646 -1.4204,-21.0804 1.90488,-5.77185 6.16031,-8.6696 12.73157,-8.6696 6.9126,0 11.67004,2.20516 14.44533,6.69567 l 2.15246,3.48275 3.84034,-8.17019 c 2.11219,-4.4936 5.87118,-11.22499 8.3533,-14.95864 C 167.80798,263.51987 180.99212,250 183.01874,250 c 1.84324,0 0.97849,-2.74834 -5.38701,-17.12105 -3.50256,-7.90842 -7.39289,-17.20527 -8.64519,-20.65967 -1.25231,-3.45439 -2.74145,-6.56781 -3.30921,-6.9187 -0.92787,-0.57346 -6.67733,5.23225 -6.67733,6.74267 0,0.34033 1.05732,1.18465 2.34961,1.87626 1.29228,0.69161 4.86314,4.52285 7.93525,8.51387 5.5116,7.16022 5.59441,7.36781 6.24782,15.66151 0.61387,7.79199 0.48822,8.66042 -1.72258,11.90511 -3.00718,4.4135 -7.0623,6.45478 -12.8101,6.44838 -6.40852,-0.007 -9.46991,-1.04406 -13.48166,-4.56642 -4.75747,-4.17712 -4.6391,-7.12548 0.48166,-11.99674 2.2,-2.09281 4,-4.52048 4,-5.39482 0,-2.25435 2.71834,-7.22882 4.22896,-7.73886 0.71525,-0.24149 -0.1427,-1.16294 -1.96203,-2.10727 -8.54555,-4.43556 -8.27661,-18.61879 0.53598,-28.26735 1.52944,-1.67451 3.55236,-3.47636 4.49538,-4.0041 1.58298,-0.88588 1.48132,-1.64707 -1.32428,-9.91618 -11.92055,-35.13408 -14.48368,-54.42742 -8.9421,-67.30919 2.01361,-4.68075 6.86052,-10.06113 11.41839,-12.67513 1.70444,-0.97752 1.68837,-1.22083 -0.3292,-4.985189 -2.90974,-5.428942 -2.61926,-10.274701 1.30943,-21.844241 2.53814,-7.47451 3.99166,-10.279867 6.0134,-11.606111 3.29087,-2.158775 4.92799,-4.48015 6.44024,-9.131959 1.15183,-3.543139 3.82535,-5.745616 7.65708,-6.307996 1.3885,-0.203787 2.12558,-1.331912 2.54131,-3.889528 0.32206,-1.981368 1.19263,-4.333959 1.93461,-5.22798 1.8224,-2.19586 7.41858,-4.885164 13.48283,-6.479316 2.75,-0.722912 6.74617,-2.182724 8.88037,-3.244026 6.45726,-3.211083 14.71143,-0.126937 16.07457,6.006212 0.44073,1.982967 1.70146,3.199345 4.57262,4.411776 4.49096,1.896434 6.43747,5.533683 5.53522,10.343101 -0.44283,2.360479 -1.51679,3.477715 -4.81635,5.010405 -4.01937,1.867061 -4.25067,2.205913 -4.32577,6.337274 -0.0997,5.482441 -0.96214,5.989791 -13.0534,7.678573 -9.75711,1.362772 -15.43357,3.843558 -17.4604,7.63072 -1.7689,3.305226 -6.94824,4.932973 -11.37413,3.574629 -3.32957,-1.021875 -3.92308,-0.935319 -5.15694,0.752086 -2.01996,2.762471 -3.1622,7.594455 -2.63859,11.162021 0.43344,2.953212 0.72392,3.131072 6.10894,3.740431 12.07897,1.366836 22.43451,9.112978 28.12628,21.039008 5.05505,10.5919 7.84675,25.64395 9.60879,51.80779 0.41757,6.20038 1.06841,9.74971 1.78771,9.74921 2.78549,-0.002 13.47366,-6.12108 16.82154,-9.63059 7.11996,-7.46368 7.56894,-13.07777 1.80954,-22.62698 -2.2,-3.64765 -4,-7.54759 -4,-8.66654 0,-1.35597 -1.29286,-2.69402 -3.87667,-4.01218 -4.66261,-2.37869 -5.68906,-4.55057 -3.63337,-7.68795 3.10894,-4.74484 11.49168,-3.96402 17.90606,1.66787 4.12254,3.61964 4.88702,2.96758 7.16989,-6.11549 1.88926,-7.51697 3.58676,-10.52364 6.45544,-11.43413 4.6886,-1.4881 6.51452,4.89515 3.47865,12.16102 -1.90498,4.55925 -1.895,4.62753 0.48965,3.3513 1.09431,-0.58566 2.72194,-2.51399 3.61697,-4.28518 3.50623,-6.93857 8.89405,-9.81969 12.19338,-6.52036 1.97143,1.97143 1.39277,4.25993 -2.3,9.09621 -1.925,2.52109 -3.5,5.03493 -3.5,5.5863 0,0.55137 1.9125,1.14087 4.25,1.30999 3.58158,0.25914 4.30196,0.67434 4.58036,2.63997 0.50872,3.5918 -2.48253,5.99845 -9.06518,7.29351 -9.48194,1.86546 -12.68397,5.40472 -17.37934,19.20966 -5.47918,16.10947 -14.12196,24.6247 -29.54402,29.10801 l -5.59798,1.62738 0.49013,10.71449 c 0.26957,5.89296 -0.015,16.53158 -0.63238,23.64137 l -1.12251,12.92688 4.28093,9.07312 C 231.82723,263.46505 239.40516,277 240.81737,277 c 2.608,0 7.19899,-4.15987 13.59275,-12.31632 11.34965,-14.47861 17.07324,-18.45361 24.71284,-17.16291 6.65637,1.12459 10.23582,8.21882 9.73922,19.30247 -0.17604,3.92913 0.42174,7.45849 1.94174,11.46427 4.31349,11.3677 2.35943,17.95708 -6.30655,21.26665 -8.40946,3.2116 -16.18799,0.46225 -19.9103,-7.03735 -1.61205,-3.2479 -1.75726,-4.61405 -0.92324,-8.68546 0.79694,-3.89041 0.72503,-4.83135 -0.36919,-4.83135 -2.91508,0 -8.04597,2.96907 -13.59571,7.86739 -6.7589,5.96555 -9.41555,6.88069 -14.49214,4.99215 -3.21056,-1.19435 -4.3092,-2.54648 -8.20679,-10.10034 -6.10886,-11.83949 -6.67011,-12.24771 -7.51724,-5.46754 C 218.61024,283.27507 215.85881,288 212.66474,288 208.80573,288 202.74991,282.76768 199,276.19345 c -1.925,-3.37484 -4.7475,-8.18873 -6.27222,-10.69752 l -2.77222,-4.56143 -4.72778,3.23156 c -6.67293,4.56114 -15.62068,13.71374 -17.96777,18.37913 -3.08871,6.13953 -3.56337,10.65617 -1.62816,15.49273 1.33802,3.34403 1.44393,4.6111 0.51038,6.10595 -0.93412,1.49575 -0.84592,2.52844 0.42597,4.98801 0.88218,1.70596 1.38236,3.94918 1.1115,4.98493 -0.47803,1.82801 1.18226,1.88326 56.66392,1.88564 31.43601,10e-4 66.94388,0.29802 78.90638,0.65925 l 21.75,0.6568 0,3.84075 L 325,325 162.5,325 0,325 0,320.5 Z m 161.46184,-7.32628 c 0.99725,-4.54043 -0.83806,-7.8179 -5.14982,-9.1965 -2.09661,-0.67035 -4.23952,-1.61446 -4.76202,-2.09802 -1.47866,-1.36846 1.68586,-1.06009 6.48026,0.63148 4.92292,1.7369 5.44481,1.5183 4.58204,-1.91926 -0.45696,-1.82068 -1.64662,-2.78464 -4.37009,-3.54099 -5.7095,-1.58563 -6.76294,-1.31438 -8.31174,2.14021 -2.00741,4.4775 -3.92511,4.78933 -3.95243,0.64269 -0.0307,-4.65291 -3.34605,-11.49797 -5.97282,-12.33167 -3.41594,-1.08418 -8.46452,0.29389 -11.01238,3.00596 -4.37064,4.65234 -3.77407,16.6869 1.13667,22.9299 1.99581,2.53726 2.15689,2.56248 16.36361,2.56248 l 14.34797,0 0.62075,-2.82628 z M 281.36422,295.62118 C 286.04024,293.66741 289,289.51582 289,284.91063 c 0,-7.93916 -8.6869,-25.6937 -14.40426,-29.43986 -4.39623,-2.88052 -9.98714,1.06086 -7.66356,5.40251 0.55141,1.03031 1.49181,4.05643 2.08978,6.72473 0.59798,2.66829 1.55295,5.13927 2.12217,5.49106 0.65975,0.40776 0.22004,2.22948 -1.21295,5.02528 -4.02769,7.85809 -2.51761,15.44917 3.56882,17.94029 2.88882,1.18238 4.16538,1.11201 7.86422,-0.43346 z M 160.78219,290.25 c 1.05511,-1.5125 2.65544,-4.95207 3.55629,-7.6435 2.24333,-6.70227 8.32267,-14.43856 16.60419,-21.12972 4.48746,-3.6257 6.74887,-6.11703 6.39339,-7.0434 -1.06583,-2.77751 -3.37569,-1.34271 -12.65335,7.85985 -7.39802,7.33813 -10.1258,10.86198 -12.96601,16.75 C 157.83578,287.08874 156.19911,293 157.85245,293 c 0.55625,0 1.87463,-1.2375 2.92974,-2.75 z m 84.0526,-4.16571 c 5.52954,-2.82097 15.45702,-14.12581 13.83188,-15.75096 -0.85695,-0.85694 -4.99143,1.78372 -9.87383,6.30636 -6.54267,6.06057 -9.58167,5.9776 -14.27356,-0.38969 -3.18741,-4.32558 -10.58183,-18.31403 -13.61169,-25.75 -2.02428,-4.96808 -2.30042,-0.36331 -0.47125,7.85846 2.72318,12.24016 9.76187,25.04833 15.47078,28.15189 3.45535,1.87844 4.50903,1.82816 8.92767,-0.42606 z M 215.0206,275.25 c 0.0113,-4.2625 0.46884,-14.5 1.01669,-22.75 1.62159,-24.41928 1.40498,-55.74504 -0.44596,-64.4939 -1.23011,-5.81434 -1.33889,-8.24098 -0.48535,-10.82722 0.81355,-2.46509 0.77776,-5.96466 -0.13742,-13.43557 -1.81101,-14.78385 -2.00979,-15.30516 -5.69222,-14.92835 -1.6929,0.17323 -3.41155,-0.22472 -3.81922,-0.88434 -0.53652,-0.86811 0.13867,-1.07018 2.44486,-0.7317 1.75234,0.25719 3.41965,0.0897 3.70512,-0.37222 0.77873,-1.26 -3.51596,-17.55287 -6.26953,-23.7849 -8.61795,-19.50459 -24.19473,-26.419476 -41.42106,-18.38776 -9.64787,4.49829 -12.93094,10.16009 -12.89915,22.24518 0.0224,8.52267 1.71625,16.3198 8.60278,39.60078 11.796,39.87821 21.60601,65.40563 35.71391,92.93403 C 203.7335,275.82367 209.066,283 212.84516,283 c 2.01932,0 2.15614,-0.48741 2.17544,-7.75 z M 201.5,251 c 2.85239,-1.22572 9.75753,-1.22572 9,0 -0.33992,0.55 -2.95398,0.96837 -5.80902,0.92971 C 200.86849,251.87796 200.02726,251.63286 201.5,251 Z m -11.42738,-25.05478 c 3.53706,-2.66801 9.6785,-4.11126 15.93044,-3.74369 l 5.49694,0.32318 -6,0.78637 c -3.3,0.4325 -8.66462,1.61205 -11.92138,2.62122 -5.70982,1.7693 -5.83509,1.76976 -3.506,0.0129 z m -6.03366,-21.13378 c -2.57555,-2.76452 -2.62824,-4.19718 -0.1047,-2.84662 3.51896,1.88328 7.6908,1.18785 10.90913,-1.81853 2.12764,-1.98751 3.20515,-2.46218 3.54988,-1.56382 0.81594,2.12631 -3.22939,6.27786 -7.18876,7.37751 -4.89683,1.36001 -4.81648,1.37289 -7.16555,-1.14854 z M 175,199.52568 c 0,-0.79127 6.14926,-3.70975 6.68586,-3.17315 0.275,0.275 -0.86947,1.20818 -2.54327,2.07373 C 175.96987,200.06694 175,200.32434 175,199.52568 Z m 8.71559,-5.46375 c -1.55428,-4.37618 -2.12148,-4.97871 -4.98472,-5.2953 L 175.5,188.4094 l 3,-0.80498 c 1.65,-0.44274 4.69341,-1.22879 6.76313,-1.74678 3.88666,-0.97272 10.03345,-5.67476 11.84616,-9.06184 0.7764,-1.45073 0.61481,-2.56793 -0.65082,-4.49953 l -1.68367,-2.56961 2.8626,0.84745 c 1.57443,0.4661 4.52003,0.84423 6.54578,0.84028 4.10792,-0.008 4.07054,0.88592 -0.12782,3.05698 -2.54992,1.31862 -2.85814,2.05476 -3.24192,7.74289 C 200.09948,192.79595 195.48573,199 188.33043,199 c -2.52496,0 -3.06699,-0.57999 -4.61484,-4.93807 z m 9.0619,1.38137 c 1.22238,-0.85619 2.22251,-2.43119 2.22251,-3.5 0,-2.35374 -1.5471,-2.56591 -2.40516,-0.32985 -0.38394,1.00053 -1.34976,1.4224 -2.54241,1.11051 -1.96341,-0.51344 -3.56219,1.64222 -2.49666,3.36628 0.83021,1.34331 2.71333,1.11 5.22172,-0.64694 z M 203.5,192 c 2.78729,-1.19774 7.25976,-1.19774 8,0 0.38424,0.62171 -1.39034,0.97341 -4.69098,0.92971 C 202.92008,192.87823 202.03497,192.62955 203.5,192 Z m -29.49114,-16.28986 c -3.37173,-1.7059 -3.58374,-3.93028 -0.69472,-7.28895 2.09875,-2.43995 3.28859,-2.86478 9.05113,-3.23171 6.6178,-0.42139 6.63473,-0.4157 6.63473,2.22921 0,3.70855 -2.57957,7.2391 -6.21521,8.50649 -3.95966,1.38034 -5.70728,1.33752 -8.77593,-0.21504 z m 10.06876,-5.28038 C 186.94431,167.83544 186.43824,167 182,167 c -3.96945,0 -8,2.58543 -8,5.13167 0,1.69464 7.77546,0.38151 10.07762,-1.70191 z m -17.35475,-7.25372 c -5.45898,-1.76441 -6.24635,-3.37629 -5.49071,-11.2404 0.80918,-8.42127 5.5991,-11.37879 10.26861,-6.34031 3.86776,4.17338 4.55289,13.45645 1.29266,17.5147 -1.17841,1.46685 -1.71825,1.47272 -6.07056,0.066 z m 3.2854,-6.67867 c 1.96203,-0.62272 2.00846,-0.8214 0.56476,-2.41668 C 169.70786,153.1247 169,151.1886 169,149.77825 c 0,-1.41035 -0.63126,-2.80651 -1.4028,-3.10258 -2.66326,-1.02199 -4.84217,1.81833 -5.33578,6.95549 -0.43035,4.47873 -0.24551,5.07142 1.88066,6.03028 1.94263,0.87609 2.47861,0.75085 3.04316,-0.71109 0.37689,-0.97596 1.64725,-2.0798 2.82303,-2.45298 z M 185.75,155.36894 c -2.23937,-0.65977 -2.41647,-8.8381 -0.30103,-13.90106 3.27956,-7.84908 12.54479,-2.17037 14.98914,9.18692 0.37833,1.75788 0.24794,3.4212 -0.29449,3.75644 -1.37604,0.85044 -12.29238,1.57677 -14.39362,0.9577 z m 4.63698,-3.83679 c 1.09119,-1.66537 2.16266,-2.25847 3.29504,-1.82393 1.56967,0.60234 1.56955,0.48903 -0.002,-1.75465 C 192.75601,146.63435 192,144.57826 192,143.38448 c 0,-2.43421 -2.79075,-3.99373 -4.35233,-2.43215 -0.55984,0.55984 -1.21368,3.7246 -1.45297,7.03278 -0.35312,4.88181 -0.15154,6.01489 1.0701,6.01489 0.82785,0 2.23283,-1.11053 3.12218,-2.46785 z M 160,138.1455 c 0,-3.59835 10.13899,-5.46042 10.79791,-1.98308 0.26462,1.39649 -0.33233,1.57559 -3.73188,1.11961 -2.52522,-0.3387 -4.61451,-0.0717 -5.55646,0.71003 C 160.50525,138.82557 160,138.87692 160,138.1455 Z m 22.01109,-2.81371 c -0.0236,-2.48732 1.34405,-4.46408 4.06043,-5.86878 4.99725,-2.58417 9.92848,-1.39614 9.92848,2.39198 0,1.2004 -0.31998,1.16541 -1.82874,-0.2 -2.97107,-2.68878 -6.70053,-2.06835 -9.58769,1.59501 -1.40877,1.7875 -2.56638,2.7243 -2.57248,2.08179 z M 159.5,133.10434 c 1.1,-1.27444 3.72392,-3.197 5.83092,-4.27236 4.77945,-2.4393 17.95571,-5.86348 22.07904,-5.73779 1.84523,0.0563 -0.8272,1.04888 -6.63384,2.46404 -9.61522,2.34337 -14.44242,4.23663 -20.27612,7.95242 l -3,1.91085 2,-2.31716 z m 105.29864,137.76505 c 0.20356,-2.36931 -0.37672,-4.33458 -1.82258,-6.1727 -2.58468,-3.28588 -3.77723,-3.39484 -4.88899,-0.44669 -0.68311,1.81148 -0.39787,2.49284 1.46355,3.49596 2.53156,1.36425 3.98267,4.58214 2.87473,6.37482 -0.42937,0.69474 -0.16213,0.9605 0.68545,0.68165 0.76406,-0.25137 1.52359,-2.02123 1.68784,-3.93304 z m 20.74082,-8.6358 C 284.55905,256.43054 281.53079,252 278.54484,252 l -2.48457,0 2.46987,3.63955 c 1.35842,2.00175 2.46986,4.19106 2.46986,4.86514 0,1.52412 4.0499,6.77875 4.71329,6.11536 0.2669,-0.26691 0.18868,-2.24081 -0.17383,-4.38646 z M 164.40823,250.47652 c 4.88507,-2.31811 7.87064,-6.93251 7.10195,-10.97652 -0.31363,-1.65 -0.55675,-3.9 -0.54027,-5 0.0855,-5.7037 -0.70254,-6.5 -6.43226,-6.5 -4.42036,0 -5.70354,0.39876 -6.93339,2.15461 -2.25649,3.2216 -0.46161,6.12185 2.97907,4.81371 1.40078,-0.53258 3.53007,-0.95807 4.73177,-0.94555 1.8521,0.0193 1.70868,0.25769 -0.9416,1.56509 -1.89906,0.93682 -4.18096,3.47971 -5.81241,6.47723 -2.94514,5.41118 -3.175,5.54151 -6.00222,3.40311 -3.78399,-2.86207 -7.30158,-1.38364 -6.05475,2.54479 1.57139,4.95099 10.16916,6.13401 17.90411,2.46353 z m -9.99168,-10.11965 c 0.34679,-0.90372 0.41434,-1.85931 0.15012,-2.12354 -0.93015,-0.93014 -3.56667,0.7222 -3.56667,2.23529 0,2.0473 2.62094,1.96158 3.41655,-0.11175 z m 8.56195,-19.03414 c -4.17987,-4.7606 -6.25255,-9.79852 -5.47943,-13.31848 0.33686,-1.53371 1.9366,-4.87651 3.55499,-7.42845 2.35713,-3.7168 2.65368,-4.75072 1.49062,-5.19703 -3.23147,-1.24003 -8.87102,5.0738 -10.72565,12.00803 -1.03342,3.86385 -0.99643,5.36263 0.21843,8.84982 1.69246,4.85816 6.68976,8.76338 11.21402,8.76338 l 2.9557,0 -3.22868,-3.67727 z m 69.57231,-37.26103 c 8.24338,-3.60808 15.05101,-11.76551 18.00223,-21.57168 C 251.8796,158.0822 251.86235,158 249.61046,158 c -1.80047,0 -2.54553,0.83992 -3.46378,3.90475 -2.22873,7.43885 -13.54912,17.66924 -21.64109,19.55735 -3.64996,0.85165 -5.50559,2.29214 -5.50559,4.27389 0,1.2099 0.89578,1.35981 4.75,0.79491 2.6125,-0.3829 6.57286,-1.49404 8.80081,-2.4692 z m 23.00806,-30.49028 c 2.02804,-1.49254 2.06025,-1.45637 -2.55887,-2.87299 -1.07674,-0.33023 -0.79457,-0.75198 1,-1.49466 1.375,-0.56905 5.40038,-3.09768 8.94528,-5.6192 3.54491,-2.52151 7.19026,-4.58457 8.10078,-4.58457 0.91052,0 3.07264,-0.49402 4.80472,-1.09783 2.35363,-0.82048 3.14922,-1.70469 3.14922,-3.5 0,-2.82396 -1.55135,-3.03429 -6.65424,-0.90217 -6.685,2.79317 -7.11959,1.39908 -1.48771,-4.77234 2.12193,-2.32521 4.37193,-5.21058 5,-6.41192 1.37387,-2.62785 1.50155,-6.31574 0.21868,-6.31574 -1.79567,0 -6.8344,5.00075 -8.08788,8.02691 -0.69881,1.68707 -2.56526,3.73692 -4.14767,4.55522 -2.58965,1.33916 -2.93926,1.32585 -3.49916,-0.13324 -0.34213,-0.89157 0.11595,-4.27551 1.01796,-7.51987 2.02534,-7.28476 2.04264,-6.92902 -0.33693,-6.92902 -2.61076,0 -4.56969,3.27451 -5.95792,9.95916 -1.2247,5.89718 -3.3526,9.04084 -6.11963,9.04084 -0.95949,0 -4.08496,-1.575 -6.9455,-3.5 -5.43718,-3.65895 -7.83607,-4.19329 -11.06574,-2.46482 -2.64763,1.41697 -2.42585,2.80334 0.56869,3.55492 3.3212,0.83356 6.90095,5.23295 9.04861,11.12041 4.68136,12.8332 4.99727,13.28949 9.20108,13.28949 2.12581,0 4.73861,-0.64286 5.80623,-1.42858 z M 250.02597,143.5 c 0.0336,-3.63579 5.41761,-8.5 9.40829,-8.5 2.84191,0 1.62917,1.82396 -2.01165,3.02554 -2.16438,0.71431 -4.33532,2.42363 -5.49627,4.32755 -1.52708,2.5044 -1.91509,2.73856 -1.90037,1.14691 z M 167.93019,97.756602 C 166.33912,92.208841 166.81511,82.785543 168.8922,78.711442 170.69885,75.167803 170.70287,75 168.98109,75 c -0.99181,0 -2.9683,1.384526 -4.3922,3.076725 -4.04683,4.809385 -3.44036,16.114951 1.1357,21.171445 2.41092,2.66404 3.23717,2.10528 2.2056,-1.491568 z M 175.2089,80.25 c 1.76772,-3.507781 1.63238,-3.770608 -1.16946,-2.271109 -3.71968,1.990713 -5.36277,13.000599 -2.78944,18.691241 1.15757,2.559838 1.2896,2.175109 1.78554,-5.202947 C 173.33009,87.085233 174.3081,82.0375 175.2089,80.25 Z m 12.48521,-6 c 0.34724,-0.9625 1.45811,-2.944467 2.46862,-4.40437 C 192.35437,66.679291 192.50882,65 190.60841,65 c -0.76538,0 -1.66525,1.090318 -1.99971,2.422928 -0.33446,1.33261 -1.77325,3.80761 -3.1973,5.5 C 182.89731,75.910749 182.88371,76 184.94249,76 c 1.16615,0 2.40438,-0.7875 2.75162,-1.75 z m -9.13094,-4.537631 c 0.33918,-1.544259 1.38022,-3.284579 2.31343,-3.867377 1.20186,-0.750573 1.58276,-2.035985 1.30594,-4.407125 -0.34451,-2.950946 -0.0677,-3.428584 2.33664,-4.032037 1.87246,-0.469958 4.1078,-0.01391 7.13088,1.454813 2.42189,1.176646 5.6289,2.103831 7.12669,2.06041 1.49779,-0.04342 2.16075,-0.305921 1.47325,-0.583334 -0.6875,-0.277412 -1.25,-1.257628 -1.25,-2.178258 0,-1.362239 -0.81172,-1.609314 -4.35995,-1.327112 -4.85445,0.38609 -5.59878,-0.661912 -5.6264,-7.921834 -0.011,-2.882919 0.48772,-3.817925 2.5334,-4.75 3.48047,-1.585809 7.67899,-1.456781 10.01182,0.307682 2.47291,1.870414 3.44113,1.899784 3.44113,0.104383 0,-1.892233 5.01616,-5.780357 6.649,-5.153776 0.70669,0.271182 3.56499,2.195313 6.35179,4.275847 5.0113,3.741284 5.03909,3.792055 2.53305,4.627402 C 218.07299,49.142336 216.99903,51 218.98565,51 221.67816,51 229,48.452071 229,47.515101 c 0,-2.454387 -3.22131,-5.515192 -5.8067,-5.517381 -2.29584,-0.0019 -2.70881,-0.440674 -2.79841,-2.972959 -0.13735,-3.881597 -1.85766,-5.83335 -5.79224,-6.571481 -3.86284,-0.724674 -10.89546,1.860215 -13.37137,4.914739 -1.30001,1.603821 -2.84223,2.135393 -6.19104,2.133929 -4.44202,-0.0019 -4.46702,0.01794 -6.28616,4.998052 -2.25611,6.176389 -5.1906,8.862696 -8.87626,8.125564 C 176.69064,51.988129 176,53.209619 176,59.483962 c 0,3.957148 -0.26779,4.413739 -3.18507,5.430708 C 168.80138,66.313804 166,68.813703 166,70.996199 c 0,1.402493 1.00509,1.672569 5.97324,1.60507 5.70696,-0.07754 6.00074,-0.206326 6.58993,-2.8889 z m 37.12173,-8.782687 c 2.38326,-0.906132 2.56383,-1.210941 1.17709,-1.98702 C 215.04833,57.927665 209,59.585661 209,61.097825 c 0,1.219966 3.24889,1.138247 6.6849,-0.168143 z M 90.5,126.3631 l -15,-10.44905 -19,0.23406 c -17.292157,0.21302 -19.409056,0.0501 -23.550805,-1.81268 C 26.830109,111.58335 21.696331,106.91187 19.721896,102.29926 18.827443,100.20967 15.821699,83.325909 13.042465,64.779797 8.355699,33.504533 8.0913431,30.763447 9.3965095,26.975173 12.328445,18.465166 19.094004,11.660681 26.198679,10.076329 c 5.069616,-1.1305308 105.489851,6.314103 109.816941,8.141257 4.56493,1.927582 9.62985,7.752058 10.92558,12.564035 0.79448,2.950484 0.24965,11.412055 -2.4197,37.579666 -3.91832,38.411123 -4.38783,40.085323 -12.42878,44.318493 C 128.20205,114.72803 126.29724,115 115.84272,115 106.12201,115 104,115.26184 104,116.46127 c 0,0.80371 0.9,5.32113 2,10.03873 2.35253,10.08934 2.38421,10.52887 0.75,10.40608 -0.6875,-0.0517 -8,-4.796 -16.25,-10.54298 z m 12.53229,-3.21814 C 101.91453,118.12688 101,113.79141 101,113.51059 101,113.22976 106.75465,113 113.78811,113 c 11.2902,0 13.30396,-0.26355 17.19206,-2.25 7.09557,-3.62517 7.59495,-5.39673 11.07572,-39.29112 1.69213,-16.477384 3.10517,-32.23084 3.14008,-35.00768 0.0914,-7.270834 -3.40198,-12.98409 -10.03263,-16.407802 -2.27946,-1.176988 -89.594565,-7.970687 -103.075482,-8.019961 -7.765239,-0.02838 -13.392862,2.816861 -17.32554,8.759538 -4.9843193,7.531815 -4.9776524,7.937607 0.750148,45.658644 5.070393,33.391616 5.386788,34.866161 8.237815,38.391861 1.630696,2.01658 5.330372,4.90402 8.221502,6.41652 5.21598,2.72875 5.408665,2.75 24.934822,2.75 l 19.678222,0 13.880236,9.49402 c 7.634129,5.22171 14.042077,9.33218 14.239877,9.13437 0.1978,-0.1978 -0.55489,-4.46534 -1.67265,-9.48343 z M 37.447862,107.75 c 0.211801,-0.6875 0.654373,-2.48002 0.983494,-3.98337 0.329121,-1.50336 2.606647,-5.103359 5.061168,-8.000003 9.89413,-11.676321 11.835342,-14.370478 14.361063,-19.931338 1.165281,-2.565592 2.68743,-5.28014 3.382553,-6.032331 C 61.931263,69.050768 63.4,66.817286 64.5,64.839664 72.256024,50.89559 77.728636,46.221271 84.946749,47.375494 c 3.50052,0.559756 3.737086,0.399062 6.839592,-4.645969 C 93.553853,39.855346 95,37.960942 95,38.519738 c 0,0.558796 -1.125,2.671579 -2.5,4.695074 -3.014382,4.436062 -3.053218,4.974557 -0.52385,7.263604 1.902204,1.721471 2.165202,1.707064 7.028351,-0.385006 C 103.94428,47.968375 111,47.948295 111,50.059271 c 0,0.46018 -1.36093,0.362269 -3.02428,-0.21758 -2.4603,-0.857666 -4.00852,-0.654793 -8.302216,1.087889 l -5.277938,2.142158 0.05222,5.539121 C 94.505095,64.690485 93.860754,65.520008 82.49409,74 c -2.580289,1.925 -5.884532,4.475309 -7.342762,5.667353 -1.45823,1.192045 -5.495024,4.496911 -8.970652,7.344149 -3.475628,2.847237 -9.100628,6.475739 -12.5,8.063338 -7.183738,3.355001 -10.64517,6.1446 -13.246107,10.67516 -1.828193,3.18452 -3.747593,4.46981 -2.986707,2 z M 52.804064,94.00604 c 7.702325,-3.602589 11.146722,-6.474059 11.311937,-9.430354 0.09179,-1.642395 0.210224,-1.716832 0.567373,-0.356592 0.383821,1.461824 1.189629,1.167932 5.38447,-1.963808 2.713205,-2.025595 5.190286,-4.493222 5.504625,-5.483614 0.314338,-0.990393 0.981982,-1.547036 1.483654,-1.236986 0.501672,0.31005 2.606773,-1.140558 4.678004,-3.223575 2.07123,-2.083016 4.068299,-3.69185 4.43793,-3.575187 0.369632,0.116663 2.057132,-1.081739 3.75,-2.663115 C 92.414094,63.744898 93,62.398314 93,58.99879 93,55.557029 92.386991,54.186991 89.6,51.4 87.73,49.53 85.465547,48 84.567881,48 c -3.098171,0 -8.255062,2.773729 -11.399692,6.131536 -3.126955,3.338933 -3.134945,3.374165 -0.9114,4.018784 L 74.5,58.80064 72.32258,58.90032 C 70.187059,58.998082 66,63.249714 66,65.320407 c 0,0.57788 -0.962594,2.075325 -2.139097,3.327655 -2.189737,2.330868 -3.112054,3.819011 -6.770085,10.923416 -1.153013,2.239312 -3.644376,5.811463 -5.536361,7.938111 -1.891985,2.126649 -3.245116,4.181918 -3.006958,4.567266 0.238157,0.385347 -1.138075,1.898959 -3.058294,3.363581 C 42.513492,97.710123 39,102.58997 39,104.45322 c 0,0.3039 1.599329,-1.21772 3.554064,-3.38138 2.041416,-2.259605 6.403928,-5.266886 10.25,-7.0658 z M 92.680335,50.347002 c -0.63293,-0.63293 6.48599,-9.089938 8.914535,-10.590133 0.66165,-0.408721 2.48598,-0.07399 4.05406,0.74384 1.56809,0.817833 2.15357,1.489742 1.30107,1.49313 -0.8525,0.0034 -2.09281,-0.536652 -2.75625,-1.20009 -0.94167,-0.941668 -2.29174,-0.137081 -6.155085,3.668167 -2.721858,2.68093 -4.717487,5.248743 -4.434732,5.706251 0.610948,0.988536 0.0037,1.106119 -0.923598,0.178835 z m 20.909805,-4.492845 c 0.49475,-0.800522 -0.0557,-0.954119 -1.82656,-0.509666 -1.77816,0.446289 -2.94199,0.116717 -3.89916,-1.104157 -1.21175,-1.545599 -1.18279,-1.598534 0.25883,-0.473081 C 110.01912,45.247337 113,44.407342 113,42.393011 113,41.626855 113.675,41 114.5,41 c 0.825,0 1.5,-0.626855 1.5,-1.393011 0,-0.766156 0.6765,-1.652607 1.50332,-1.969891 1.28039,-0.491329 1.26333,-0.210597 -0.11501,1.893011 C 116.49823,40.888549 115.37173,42 114.88499,42 114.39825,42 114,42.683573 114,43.519052 c 0,1.130144 0.70406,1.371556 2.75,0.942942 l 2.75,-0.576109 -2.5,1.521622 c -3.00511,1.829059 -4.37515,2.008517 -3.40986,0.44665 z m -11.36395,-1.427818 c 0.94941,-0.99401 2.00045,-1.533036 2.33565,-1.197835 0.3352,0.3352 -0.44159,1.148481 -1.72619,1.807291 -2.23286,1.145119 -2.25968,1.118297 -0.60946,-0.609456 z M 120,43.166667 C 120,41.425 120.35841,40 120.79647,40 c 1.00163,0 0.96357,4.574126 -0.0465,5.583686 C 120.3375,45.995992 120,44.908333 120,43.166667 Z M 96.75,40.001772 C 97.4375,39.230797 98,37.775877 98,36.768615 c 0,-1.007261 0.675,-2.090406 1.5,-2.406989 0.825,-0.316582 1.5,-1.186626 1.5,-1.933431 0,-0.746805 1.0125,-1.848485 2.25,-2.448177 2.03053,-0.983994 2.0793,-0.952286 0.5,0.325058 -0.9625,0.778475 -1.75,2.1533 -1.75,3.055167 C 102,34.262109 101.325,35 100.5,35 99.675,35 99,35.8449 99,36.877555 c 0,1.032656 -0.7875,2.473453 -1.75,3.201772 -1.488774,1.126549 -1.56341,1.114972 -0.5,-0.07755 z M 108.64725,38.25 c 0.25301,-0.9625 1.33317,-2.875 2.40037,-4.25 1.93942,-2.498795 1.93951,-2.497957 0.19637,1.739829 -1.72421,4.191731 -3.48658,5.895358 -2.59674,2.510171 z M 120.5,38.234687 c 0.55,-0.404078 1.54627,-1.715096 2.21394,-2.913374 0.95192,-1.708432 0.95192,-2.284961 0,-2.671053 -0.6826,-0.276855 -0.44796,-0.526921 0.53606,-0.571313 0.9625,-0.04342 1.75,0.386885 1.75,0.956236 0,1.689452 -3.13765,5.966063 -4.36501,5.949504 -0.72475,-0.0098 -0.77354,-0.280866 -0.13499,-0.75 z M 102.2545,36.322453 C 104.07983,34.252237 113,27.573797 113,28.277401 c 0,0.22092 -2.8125,2.569154 -6.25,5.218298 -3.4375,2.649145 -5.46048,3.921184 -4.4955,2.826754 z M 93,36.059017 C 93,35.476558 93.45,35 94,35 c 0.55,0 1,0.198442 1,0.440983 0,0.242541 -0.45,0.719098 -1,1.059017 -0.55,0.339919 -1,0.141476 -1,-0.440983 z m 4.116001,-4.759327 c -0.0638,-1.21017 0.519957,-2.56017 1.297239,-3 0.777281,-0.439829 1.564781,-2.14969 1.75,-3.79969 0.25159,-2.241279 0.81892,-2.958279 2.24322,-2.835034 1.04856,0.09073 2.5931,-0.521672 3.43233,-1.360897 1.36782,-1.367818 1.64787,-1.35901 2.70378,0.08503 C 109.19042,21.275096 110.6975,22 111.89163,22 c 1.19413,0 2.43016,0.675 2.74674,1.5 0.31659,0.825 1.20246,1.5 1.96862,1.5 1.7046,0 1.79486,1.198148 0.20968,2.783333 -0.65084,0.650834 -0.89727,1.469405 -0.54762,1.819048 0.34964,0.349643 1.36428,-0.09286 2.25476,-0.983333 2.25037,-2.250366 3.48874,-2.020953 3.4059,0.630952 -0.0642,2.055473 -0.13538,2.08388 -0.82322,0.328568 -0.71274,-1.818857 -0.84395,-1.792165 -2.4579,0.5 -1.43766,2.041795 -1.85493,2.186259 -2.66147,0.921432 -1.23322,-1.933963 -1.22538,-2.734712 0.0344,-3.513285 0.59723,-0.369109 0.0781,-1.395947 -1.25,-2.472305 -1.56729,-1.270246 -2.64415,-1.532237 -3.47351,-0.84508 -0.66111,0.547749 -2.08701,0.71502 -3.16867,0.371714 -1.37665,-0.436931 -2.12384,-0.08671 -2.49057,1.167382 -0.423,1.446499 -0.47998,1.406355 -0.29579,-0.208426 0.17641,-1.546576 0.8537,-1.933146 2.98747,-1.705114 2.67399,0.285765 2.70383,0.236474 0.96446,-1.593606 -1.53804,-1.618246 -2.02462,-1.69277 -3.40027,-0.520776 -0.88296,0.752244 -2.34546,1.083722 -3.25,0.736617 C 101.33947,21.916288 101,22.41708 101,24.843321 101,26.524835 100.37516,28.26048 99.611469,28.70031 98.847776,29.140139 97.999977,30.4 97.72747,31.5 c -0.457822,1.848043 -0.504281,1.832824 -0.611469,-0.20031 z"
       id="path6738"
       inkscape:connector-curvature="0" />
  </g>
</svg>
